<svg id="Layer_1" data-name="Layer 1" xmlns="http://www.w3.org/2000/svg" xmlns:xlink="http://www.w3.org/1999/xlink" viewBox="0 0 1930.27 1272.59"><defs><style>.cls-1{fill:none;}.cls-2{clip-path:url(#clip-path);}.cls-3{fill:#939598;}.cls-4{fill:#949699;}.cls-5{fill:#95979a;}.cls-6{fill:#96989b;}.cls-7{fill:#97999c;}.cls-8{fill:#989a9d;}.cls-9{fill:#999b9e;}.cls-10{fill:#9a9c9f;}.cls-11{fill:#9b9da0;}.cls-12{fill:#9c9ea1;}.cls-13{fill:#9d9fa2;}.cls-14{fill:#9fa1a3;}.cls-15{fill:#a0a2a4;}.cls-16{fill:#a1a3a5;}.cls-17{fill:#a2a4a6;}.cls-18{fill:#a3a5a7;}.cls-19{fill:#a4a6a8;}.cls-20{fill:#a5a7a9;}.cls-21{fill:#a6a8aa;}.cls-22{fill:#a7a9ab;}.cls-23{fill:#a8aaac;}.cls-24{fill:#a9abad;}.cls-25{fill:#aaacae;}.cls-26{fill:#abadaf;}.cls-27{fill:#acaeb0;}.cls-28{fill:#adafb1;}.cls-29{fill:#aeb0b2;}.cls-30{fill:#afb1b3;}.cls-31{fill:#b0b2b4;}.cls-32{fill:#b1b3b5;}.cls-33{fill:#b2b4b6;}.cls-34{fill:#b3b5b7;}.cls-35{fill:#b4b6b8;}.cls-36{fill:#b5b7b9;}.cls-37{fill:#b7b8ba;}.cls-38{fill:#b8b9ba;}.cls-39{fill:#b9babb;}.cls-40{fill:#babbbc;}.cls-41{fill:#bbbcbd;}.cls-42{fill:#bcbdbe;}.cls-43{fill:#bdbebf;}.cls-44{fill:#bebfc0;}.cls-45{fill:#bfc0c1;}.cls-46{fill:#c0c1c2;}.cls-47{fill:#c1c2c3;}.cls-48{fill:#c2c3c4;}.cls-49{fill:#c3c4c5;}.cls-50{fill:#c4c5c6;}.cls-51{fill:#c5c6c7;}.cls-52{fill:#c6c7c8;}.cls-53{fill:#c7c8c9;}.cls-54{fill:#c8c9ca;}.cls-55{fill:#c9cacb;}.cls-56{fill:#cacbcc;}.cls-57{fill:#cbcccd;}.cls-58{fill:#cccdce;}.cls-59{fill:#cdcecf;}.cls-60{fill:#cecfd0;}.cls-61{fill:#d0d0d1;}.cls-62{fill:#d1d1d2;}.cls-63{fill:#d2d2d3;}.cls-64{fill:#d3d3d4;}.cls-65{fill:#d4d4d5;}.cls-66{fill:#d5d5d6;}.cls-67{fill:#d6d6d7;}.cls-68{fill:#d7d7d8;}.cls-69{fill:#d8d8d9;}.cls-70{fill:#d9d9da;}.cls-71{fill:#dadadb;}.cls-72{fill:#dbdbdc;}.cls-73{fill:#dcdcdd;}.cls-74{fill:#ddddde;}.cls-75{fill:#dededf;}.cls-76{fill:#dfdfe0;}.cls-77{fill:#e0e0e1;}.cls-78{fill:#e1e1e2;}.cls-79{fill:#e3e3e3;}.cls-80{fill:#e4e4e4;}.cls-81{fill:#e5e5e5;}.cls-82{fill:#e6e6e6;}.cls-83{fill:#e7e7e7;}.cls-84{fill:#e8e8e8;}.cls-85{fill:#e9e9e9;}.cls-86{fill:#eaeaea;}.cls-87{fill:#ebebeb;}.cls-88{fill:#ececec;}.cls-89{fill:#ededed;}.cls-90{fill:#eee;}.cls-91{fill:#efefef;}.cls-92{fill:#f0f0f0;}.cls-93{fill:#f1f1f2;}.cls-94{fill:#f2f2f3;}.cls-95{fill:#f3f3f4;}.cls-96{fill:#f4f4f5;}.cls-97{fill:#f5f5f6;}.cls-98{fill:#f6f6f7;}.cls-99{fill:#f7f7f8;}.cls-100{fill:#f8f8f9;}.cls-101{fill:#fafafa;}.cls-102{fill:#fbfbfb;}.cls-103{fill:#fcfcfc;}.cls-104{fill:#fdfdfd;}.cls-105{opacity:0.68;}.cls-106{fill:#e6e7e8;}.cls-107{opacity:0.64;}.cls-108{fill:#d7dade;}</style><clipPath id="clip-path" transform="translate(5.77 6.67)"><rect class="cls-1" x="-0.98" y="-0.1" width="1922" height="1265"/></clipPath></defs><title>FONDO-LOGIN-SOCIORED</title><g class="cls-2"><rect class="cls-3" x="4.78" y="6.57" width="1922" height="1265"/><polygon class="cls-3" points="1927.78 641.61 1927.78 5.57 3.78 5.57 3.78 1272.57 1927.78 1272.57 1927.78 641.61"/><polygon class="cls-4" points="1927.78 641.61 1927.78 5.57 3.78 5.57 3.78 1272.57 1927.78 1272.57 1927.78 641.61"/><polygon class="cls-5" points="1927.78 641.61 1927.78 5.57 3.78 5.57 3.78 1272.57 1927.78 1272.57 1927.78 641.61"/><polygon class="cls-6" points="1927.78 641.61 1927.78 5.57 3.78 5.57 3.78 1272.57 1927.78 1272.57 1927.78 641.61"/><polygon class="cls-7" points="1927.78 641.61 1927.78 5.57 3.78 5.57 3.78 1272.57 1927.78 1272.57 1927.78 641.61"/><polygon class="cls-8" points="1927.78 641.61 1927.78 5.57 3.78 5.57 3.78 1272.57 1927.78 1272.57 1927.78 641.61"/><polygon class="cls-9" points="1927.78 641.61 1927.78 5.57 3.78 5.57 3.78 1272.57 1927.78 1272.57 1927.78 641.61"/><polygon class="cls-10" points="1927.78 641.61 1927.78 5.57 3.78 5.57 3.78 1272.57 1927.78 1272.57 1927.78 641.61"/><polygon class="cls-11" points="1927.78 641.61 1927.78 5.57 3.78 5.57 3.78 1272.57 1927.78 1272.57 1927.78 641.61"/><polygon class="cls-12" points="1927.78 641.61 1927.78 5.57 3.78 5.57 3.78 1272.57 1927.78 1272.57 1927.78 641.61"/><polygon class="cls-13" points="1927.78 641.61 1927.78 5.57 3.78 5.57 3.78 1272.57 1927.78 1272.57 1927.78 641.61"/><polygon class="cls-14" points="1927.78 641.61 1927.78 5.57 3.78 5.57 3.78 1272.57 1927.78 1272.57 1927.78 641.61"/><polygon class="cls-15" points="1927.78 641.61 1927.78 5.57 3.78 5.57 3.78 1272.57 1927.78 1272.57 1927.78 641.61"/><polygon class="cls-16" points="1927.78 641.61 1927.78 5.57 3.78 5.57 3.78 1272.57 1927.78 1272.57 1927.78 641.61"/><polygon class="cls-17" points="1927.78 641.61 1927.78 5.57 3.78 5.57 3.78 1272.57 1927.78 1272.57 1927.78 641.61"/><polygon class="cls-18" points="1927.78 641.61 1927.78 5.57 3.78 5.57 3.78 1272.57 1927.78 1272.57 1927.78 641.61"/><polygon class="cls-19" points="1927.78 641.61 1927.78 5.57 3.78 5.57 3.78 1272.57 1927.78 1272.57 1927.78 641.61"/><polygon class="cls-20" points="1927.78 641.61 1927.78 5.57 3.78 5.57 3.78 1272.57 1927.78 1272.57 1927.78 641.61"/><polygon class="cls-21" points="1927.78 641.61 1927.78 5.57 3.78 5.57 3.78 1272.57 1927.78 1272.57 1927.78 641.61"/><polygon class="cls-22" points="1927.78 641.61 1927.78 5.57 3.78 5.57 3.78 1272.57 1927.78 1272.57 1927.78 641.61"/><polygon class="cls-23" points="1927.78 641.61 1927.78 5.57 3.78 5.57 3.78 1272.57 1927.78 1272.57 1927.78 641.61"/><polygon class="cls-24" points="1927.78 641.61 1927.78 5.57 3.78 5.57 3.78 1272.57 1927.78 1272.57 1927.78 641.61"/><polygon class="cls-24" points="1927.78 641.61 1927.78 5.57 3.78 5.57 3.78 1272.57 1927.78 1272.57 1927.78 641.61"/><polygon class="cls-25" points="1927.78 641.61 1927.78 5.57 3.78 5.57 3.78 1272.57 1927.78 1272.57 1927.78 641.61"/><polygon class="cls-26" points="1927.78 641.61 1927.78 5.57 3.78 5.57 3.78 1272.57 1927.78 1272.57 1927.78 641.61"/><polygon class="cls-27" points="1927.78 641.61 1927.78 5.57 3.78 5.57 3.78 1272.57 1927.78 1272.57 1927.78 641.61"/><polygon class="cls-28" points="1927.78 641.61 1927.78 5.57 3.78 5.57 3.78 1272.57 1927.78 1272.57 1927.78 641.61"/><polygon class="cls-29" points="1927.78 641.61 1927.78 5.57 3.78 5.57 3.78 1272.57 1927.78 1272.57 1927.78 641.61"/><polygon class="cls-30" points="1927.78 641.61 1927.78 5.57 3.78 5.57 3.78 1272.57 1927.78 1272.57 1927.78 641.61"/><polygon class="cls-31" points="1927.78 641.61 1927.78 5.57 3.78 5.57 3.78 1272.57 1927.78 1272.57 1927.78 641.61"/><polygon class="cls-32" points="1927.78 641.61 1927.78 5.57 3.78 5.57 3.78 1272.57 1927.78 1272.57 1927.78 641.61"/><polygon class="cls-33" points="1927.78 641.61 1927.78 5.57 3.78 5.57 3.78 1272.57 1927.78 1272.57 1927.78 641.61"/><polygon class="cls-34" points="1927.78 641.61 1927.78 5.57 3.78 5.57 3.78 1272.57 1927.78 1272.57 1927.78 641.61"/><polygon class="cls-35" points="1927.78 641.61 1927.78 5.57 3.78 5.57 3.78 1272.57 1927.78 1272.57 1927.78 641.61"/><polygon class="cls-36" points="1927.78 641.61 1927.78 5.57 3.78 5.57 3.78 1272.57 1927.78 1272.57 1927.78 641.61"/><polygon class="cls-37" points="1927.78 641.61 1927.78 5.57 3.78 5.57 3.78 1272.57 1927.78 1272.57 1927.78 641.61"/><polygon class="cls-38" points="1927.78 641.61 1927.78 5.57 3.78 5.57 3.78 1272.57 1927.78 1272.57 1927.78 641.61"/><polygon class="cls-39" points="1927.78 641.61 1927.78 5.57 3.78 5.57 3.78 1272.57 1927.78 1272.57 1927.78 641.61"/><polygon class="cls-40" points="1927.78 641.61 1927.78 5.57 3.78 5.57 3.78 1272.57 1927.78 1272.57 1927.78 641.61"/><polygon class="cls-41" points="1927.78 641.61 1927.78 5.57 3.78 5.57 3.78 1272.57 1927.78 1272.57 1927.78 641.61"/><polygon class="cls-42" points="1927.78 641.61 1927.78 5.57 3.78 5.57 3.78 1272.57 1927.78 1272.57 1927.78 641.61"/><polygon class="cls-43" points="1927.78 641.61 1927.78 5.57 3.78 5.57 3.78 1272.57 1927.78 1272.57 1927.78 641.61"/><polygon class="cls-44" points="1927.78 641.61 1927.78 5.57 3.78 5.57 3.78 1272.57 1927.78 1272.57 1927.78 641.61"/><polygon class="cls-45" points="1927.78 641.61 1927.78 5.57 3.78 5.57 3.78 1272.57 1927.78 1272.57 1927.78 641.61"/><polygon class="cls-46" points="1927.78 641.61 1927.78 5.57 3.78 5.57 3.78 1272.57 1927.78 1272.57 1927.78 641.61"/><polygon class="cls-47" points="1927.78 641.61 1927.78 5.57 3.78 5.57 3.78 1272.57 1927.78 1272.57 1927.78 641.61"/><polygon class="cls-48" points="1927.78 641.61 1927.78 5.57 3.78 5.57 3.78 1272.57 1927.78 1272.57 1927.78 641.61"/><polygon class="cls-49" points="1927.78 641.61 1927.78 5.57 3.78 5.57 3.78 1272.57 1927.78 1272.57 1927.78 641.61"/><polygon class="cls-50" points="1927.78 641.61 1927.78 5.57 3.78 5.57 3.78 1272.57 1927.78 1272.57 1927.78 641.61"/><polygon class="cls-50" points="1927.78 641.61 1927.78 5.57 3.78 5.57 3.78 1272.57 1927.78 1272.57 1927.78 641.61"/><polygon class="cls-51" points="1927.78 641.61 1927.78 5.57 3.78 5.57 3.78 1272.57 1927.78 1272.57 1927.78 641.61"/><polygon class="cls-52" points="1927.78 641.61 1927.78 5.57 3.78 5.57 3.78 1272.57 1927.78 1272.57 1927.78 641.61"/><polygon class="cls-53" points="1927.78 641.61 1927.78 5.57 3.78 5.57 3.78 1272.57 1927.78 1272.57 1927.78 641.61"/><polygon class="cls-54" points="1927.78 641.61 1927.78 5.57 3.78 5.57 3.78 1272.57 1927.78 1272.57 1927.78 641.61"/><polygon class="cls-55" points="1927.78 641.61 1927.78 5.57 3.78 5.57 3.78 1272.57 1927.78 1272.57 1927.78 641.61"/><polygon class="cls-56" points="1927.78 641.61 1927.78 5.57 3.78 5.57 3.78 1272.57 1927.78 1272.57 1927.78 641.61"/><polygon class="cls-57" points="1927.78 641.61 1927.78 5.57 3.78 5.57 3.78 1272.57 1927.78 1272.57 1927.78 641.61"/><polygon class="cls-58" points="1927.78 641.61 1927.78 5.57 3.78 5.57 3.78 1272.57 1927.78 1272.57 1927.78 641.61"/><polygon class="cls-59" points="1927.78 641.61 1927.78 5.57 3.78 5.57 3.78 1272.57 1927.78 1272.57 1927.78 641.61"/><polygon class="cls-60" points="1927.78 641.61 1927.78 5.57 3.78 5.57 3.78 1272.57 1927.78 1272.57 1927.78 641.61"/><polygon class="cls-61" points="1927.78 641.61 1927.78 5.57 3.78 5.57 3.78 1272.57 1927.78 1272.57 1927.78 641.61"/><polygon class="cls-62" points="1927.78 641.61 1927.78 5.57 3.78 5.57 3.78 1272.57 1927.78 1272.57 1927.78 641.61"/><polygon class="cls-63" points="1927.78 641.61 1927.78 5.57 3.78 5.57 3.78 1272.57 1927.78 1272.57 1927.78 641.61"/><polygon class="cls-64" points="1927.78 641.61 1927.78 5.57 3.78 5.57 3.78 1272.57 1927.78 1272.57 1927.78 641.61"/><polygon class="cls-65" points="1927.78 641.61 1927.78 5.57 3.78 5.57 3.78 1272.57 1927.78 1272.57 1927.78 641.61"/><polygon class="cls-66" points="1927.78 641.61 1927.78 5.57 3.78 5.57 3.78 1272.57 1927.78 1272.57 1927.78 641.61"/><polygon class="cls-67" points="1927.78 641.61 1927.78 5.57 3.78 5.57 3.78 1272.57 1927.78 1272.57 1927.78 641.61"/><polygon class="cls-68" points="1927.78 641.61 1927.78 5.57 3.78 5.57 3.78 1272.57 1927.78 1272.57 1927.78 641.61"/><polygon class="cls-69" points="1927.78 641.61 1927.78 5.57 3.78 5.57 3.78 1272.57 1927.78 1272.57 1927.78 641.61"/><polygon class="cls-70" points="1927.78 641.61 1927.78 5.57 3.78 5.57 3.78 1272.57 1927.78 1272.57 1927.78 641.61"/><polygon class="cls-71" points="1927.78 641.61 1927.78 5.57 3.78 5.57 3.78 1272.57 1927.78 1272.57 1927.78 641.61"/><polygon class="cls-71" points="1927.78 641.61 1927.78 5.57 3.78 5.57 3.78 1272.57 1927.78 1272.57 1927.78 641.61"/><polygon class="cls-72" points="1927.78 641.61 1927.78 5.57 3.78 5.57 3.78 1272.57 1927.78 1272.57 1927.78 641.61"/><polygon class="cls-73" points="1927.78 641.61 1927.78 5.57 3.78 5.57 3.78 1272.57 1927.78 1272.57 1927.78 641.61"/><polygon class="cls-74" points="1927.78 641.61 1927.78 5.57 3.78 5.57 3.78 1272.57 1927.78 1272.57 1927.78 641.61"/><polygon class="cls-75" points="1927.78 641.61 1927.78 5.57 3.78 5.57 3.78 1272.57 1927.78 1272.57 1927.78 641.61"/><polygon class="cls-76" points="1927.78 641.61 1927.78 5.57 3.78 5.57 3.78 1272.57 1927.78 1272.57 1927.78 641.61"/><polygon class="cls-77" points="1927.78 641.61 1927.78 5.57 3.78 5.57 3.78 1272.57 1927.78 1272.57 1927.78 641.61"/><polygon class="cls-78" points="1927.78 641.61 1927.78 5.57 3.78 5.57 3.78 1272.57 1927.78 1272.57 1927.78 641.61"/><polygon class="cls-79" points="1927.78 641.61 1927.78 5.57 3.78 5.57 3.78 1272.57 1927.78 1272.57 1927.78 641.61"/><polygon class="cls-80" points="1927.78 641.61 1927.78 5.57 3.78 5.57 3.78 1272.57 1927.78 1272.57 1927.78 641.61"/><polygon class="cls-81" points="1927.78 641.61 1927.78 5.57 3.78 5.57 3.78 1272.57 1927.78 1272.57 1927.78 641.61"/><polygon class="cls-82" points="1927.78 641.61 1927.78 5.57 3.78 5.57 3.78 1272.57 1927.78 1272.57 1927.78 641.61"/><polygon class="cls-83" points="1927.78 641.61 1927.78 5.57 3.78 5.57 3.78 1272.57 1927.78 1272.57 1927.78 641.61"/><polygon class="cls-84" points="1927.78 641.61 1927.78 5.57 3.78 5.57 3.78 1272.57 1927.78 1272.57 1927.78 641.61"/><polygon class="cls-85" points="1927.78 641.61 1927.78 5.57 3.78 5.57 3.78 1272.57 1927.78 1272.57 1927.78 641.61"/><polygon class="cls-86" points="1927.78 641.61 1927.78 5.57 3.78 5.57 3.78 1272.57 1927.78 1272.57 1927.78 641.61"/><polygon class="cls-87" points="1927.78 641.61 1927.78 5.57 3.78 5.57 3.78 1272.57 1927.78 1272.57 1927.78 641.61"/><polygon class="cls-87" points="1927.78 641.61 1927.78 5.57 3.78 5.57 3.78 1272.57 1927.78 1272.57 1927.78 641.61"/><polygon class="cls-88" points="1927.78 641.61 1927.78 5.57 3.78 5.57 3.78 1272.57 1927.78 1272.57 1927.78 641.61"/><polygon class="cls-89" points="1927.78 641.61 1927.78 5.57 3.78 5.57 3.78 1272.57 1927.78 1272.57 1927.78 641.61"/><polygon class="cls-90" points="1927.78 641.61 1927.78 5.57 3.78 5.57 3.78 1272.57 1927.78 1272.57 1927.78 641.61"/><polygon class="cls-91" points="1927.78 641.61 1927.78 5.57 3.78 5.57 3.78 1272.57 1927.78 1272.57 1927.78 641.61"/><polygon class="cls-92" points="1927.78 641.61 1927.78 5.57 3.78 5.57 3.78 1272.57 1927.78 1272.57 1927.78 641.61"/><polygon class="cls-93" points="1927.78 641.61 1927.78 5.57 3.78 5.57 3.78 1272.57 1927.78 1272.57 1927.78 641.61"/><polygon class="cls-94" points="1927.78 641.61 1927.78 5.57 3.78 5.57 3.78 1272.57 1927.78 1272.57 1927.78 641.61"/><polygon class="cls-95" points="1927.78 641.61 1927.78 5.57 3.78 5.57 3.78 1272.57 1927.78 1272.57 1927.78 641.61"/><polygon class="cls-96" points="1927.78 641.61 1927.78 5.57 3.78 5.57 3.78 1272.57 1927.78 1272.57 1927.78 641.61"/><polygon class="cls-97" points="1927.78 641.61 1927.78 5.57 3.78 5.57 3.78 1272.57 1927.78 1272.57 1927.78 641.61"/><polygon class="cls-98" points="1927.78 641.61 1927.78 5.57 3.78 5.57 3.78 1272.57 1927.78 1272.57 1927.78 641.61"/><polygon class="cls-98" points="1927.78 641.61 1927.78 5.57 3.78 5.57 3.78 1272.57 1927.78 1272.57 1927.78 641.61"/><polygon class="cls-99" points="1927.78 641.61 1927.78 5.57 3.78 5.57 3.78 1272.57 1927.78 1272.57 1927.78 641.61"/><polygon class="cls-100" points="1927.78 641.61 1927.78 5.57 3.78 5.57 3.78 1272.57 1927.78 1272.57 1927.78 641.61"/><polygon class="cls-101" points="1927.78 641.61 1927.78 5.57 3.78 5.57 3.78 1272.57 1927.78 1272.57 1927.78 641.61"/><polygon class="cls-102" points="1927.78 641.61 1927.78 151.22 1927.78 5.57 3.78 5.57 3.78 1272.57 1927.78 1272.57 1927.78 641.61"/><polygon class="cls-103" points="1927.78 641.61 1927.78 173.26 1927.78 5.57 3.78 5.57 3.78 1272.57 1927.78 1272.57 1927.78 641.61"/><polygon class="cls-104" points="1927.78 641.61 1927.78 195.3 1927.78 5.57 3.78 5.57 3.78 1272.57 1927.78 1272.57 1927.78 641.61"/><path class="cls-104" d="M1922,635V36.45h2.48q-3.82-5.49-7.73-10.92Q1909,14.66,1900.91,4q-4-5.34-8.13-10.64V-1.1H22.11V-6.67Q18-1.37,14,4,5.91,14.65-1.89,25.53L-5.77,31H-2V1238.92H-5.77l3.88,5.45q7.8,10.86,15.87,21.55v0H1900.91v0q8.07-10.68,15.86-21.55,3.9-5.44,7.73-10.92H1922Z" transform="translate(5.77 6.67)"/></g><g class="cls-2"><g class="cls-105"><path class="cls-106" d="M924.06,428.91l.2.85,124.18,540.16-.69-.12L491.22,881.57l.63-.67Zm123.13,539.82L923.52,430.86l-430.33,450Z" transform="translate(5.77 6.67)"/><path class="cls-106" d="M704.65,53.65l.69,1.15L1144.4,799.25l-.53.2L559.18,1014.62l.13-.81ZM1143,798.73,705.23,56.46l-144.86,956.7Z" transform="translate(5.77 6.67)"/><path class="cls-106" d="M995.3,433.55l.5.79L460.6,994.08l-.8-.48L590.62,582.82l-.11-.29.44-.18Zm-534,558.38L993.67,435.17l-402.16,148Z" transform="translate(5.77 6.67)"/><polygon class="cls-106" points="172.73 150.92 172.24 150.42 143.22 216.91 143.22 219.32 172.54 152.1 429 415.14 143.22 460.74 143.22 461.72 430.06 415.95 430.99 415.8 172.73 150.92"/><polygon class="cls-106" points="143.22 363.26 143.22 364.25 405.98 322.31 143.22 631.08 143.22 632.56 407.55 321.95 408.4 320.95 143.22 363.26"/><path class="cls-106" d="M1198.26,759.86l.22.86,90.19,356.94-.55,0-472.53,51.41h-1.1l.68-.82Zm89.21,356.95-89.71-355L816.76,1168Z" transform="translate(5.77 6.67)"/><path class="cls-106" d="M1007,517.93l.5.76,284.73,447h-.86l-482.75,23-.64-.07.15-.59ZM1290.45,964.8,1007.16,520,809.29,987.75Z" transform="translate(5.77 6.67)"/><path class="cls-106" d="M834.82,821.14l.54.15L1215,803.19l-.86.85L829.07,1214.63v-1.24Zm377.82-16.86-376.84,18-5.7,389.89Z" transform="translate(5.77 6.67)"/><path class="cls-106" d="M733.25,439.89l.38.18,342.62,181.46-.17.41-195.3,461.72-.33-1.44L732.89,440.39ZM1075,622,734.09,441.36l147,639.16Z" transform="translate(5.77 6.67)"/><path class="cls-106" d="M652.49,336.43l1,.55L871,330l160.86,224.47-.62.7L653.27,338h-.22l-.07-.17-1.3-.74h1Zm218-5.44L655.06,337.9l374.69,215.36Z" transform="translate(5.77 6.67)"/><path class="cls-106" d="M615.44,308.11l1,.51,447,256.89-.75.42L840.51,690.23l-.23-.41L615.83,309.33Zm446.09,257.4-444-255.16L840.87,688.92Z" transform="translate(5.77 6.67)"/><polygon class="cls-106" points="372.1 116.27 371.95 115.83 143.22 186.14 143.22 187.14 371.35 117.02 447.75 337.97 143.22 196.47 143.22 197.53 448.37 339.32 449.39 339.8 372.1 116.27"/><polygon class="cls-106" points="143.22 172.3 143.22 173.36 547.79 361.36 408.17 518.49 143.22 246.73 143.22 248.11 407.84 519.53 408.21 519.9 548.94 361.51 549.37 361.02 143.22 172.3"/><polygon class="cls-106" points="143.22 92.77 204.16 9.19 202.97 9.19 143.22 91.15 143.22 92.77"/><polygon class="cls-106" points="456.77 9.19 455.76 9.19 547.57 268.78 143.22 252.77 143.22 253.73 548.24 269.77 548.96 269.81 456.77 9.19"/><polygon class="cls-106" points="143.22 151.97 568.11 168.79 143.22 299.41 143.22 300.42 571.09 168.89 570.97 167.95 143.22 151 143.22 151.97"/><polygon class="cls-106" points="449.76 9.19 448.8 9.19 470.81 213.82 143.22 183.31 143.22 184.28 471.31 214.83 471.9 214.88 449.76 9.19"/><path class="cls-106" d="M1073,788.33l.29,1.15L1283,1040.86l-113.62,132.58-96.93-383.5-.13-.17.13-.29Zm208.71,252.53L1073.89,791.65l96,379.78Z" transform="translate(5.77 6.67)"/><path class="cls-106" d="M751.29,416.55l.65.24,575.44-158.1L830,913.21l-.18-1.11Zm573.59-156.17L752.44,417.66,830.6,910.85Z" transform="translate(5.77 6.67)"/><path class="cls-106" d="M615.44,220.62l.32,1.78,67.45,373.45-.45.1L466.3,642.86l.77-1Zm66.69,374.5-67-370.76-146.9,417.1Z" transform="translate(5.77 6.67)"/><path class="cls-106" d="M671.29,53.42v1l1.13,280.81H672L301.06,360.44l-1,.86.18-.78-.85.05,1-.85.05-.19h.21Zm.19,280.93L670.34,55.47l-368,303.91Z" transform="translate(5.77 6.67)"/><path class="cls-106" d="M231.55,185.76l.33-.06,434.17-29.41-.25.7-217,616.16-.45-1.25-217-585.69Zm433.1-28.41L232.56,186.62l216.21,583.7Z" transform="translate(5.77 6.67)"/><polygon class="cls-106" points="143.22 314.31 323.02 9.19 321.91 9.19 143.22 312.42 143.22 314.31"/><polygon class="cls-106" points="753.32 9.19 752.2 9.19 932.22 317.81 143.22 338.84 143.22 339.81 933.05 318.75 933.87 318.72 753.32 9.19"/><path class="cls-106" d="M1585.07,460.59l.69.65L1350.62,851.16h-.29L1047,837.78l.36-.77.12-.1Zm-235,389.63,233.68-387.54L1049.13,836.91Z" transform="translate(5.77 6.67)"/><path class="cls-106" d="M861.76,934.26v1.08l122,5.38-.28.64-128.2,299.4-.91-.19,6.44-304.31h-.42l.43-.63v-.33H861Zm120.48,7.36L861.73,936.3l-6.39,301.83Z" transform="translate(5.77 6.67)"/><path class="cls-106" d="M711.31,628.86l.67-.24.19.11,403.71,223.88-.64.44L841.93,1044.32l-.2-.62ZM1114,852.7,712.74,630.11l129.7,412.68Z" transform="translate(5.77 6.67)"/><path class="cls-106" d="M490.86,500.11,1070.93,674.4l-1.37.52L784.83,776.44l-.21-.2L490.48,500.92Zm577,174.38L492.55,501.63,785,775.34Z" transform="translate(5.77 6.67)"/><path class="cls-106" d="M769.26,8.42l.32.67,187,393-.9-.17L512.26,323h-1l.66-.76ZM955,400.76,769.05,10.2l-255.83,312Z" transform="translate(5.77 6.67)"/><polygon class="cls-106" points="1434.43 9.19 1548.05 29.4 789.66 763.18 653.49 9.19 652.52 9.19 788.89 764.23 789.05 765.11 1549.4 29.43 1550.08 28.77 1439.95 9.19 1434.43 9.19"/><path class="cls-106" d="M683,41.55l.36.38,73.08,77.46-177,37.21-.38-.85Zm71.57,77.26L683,43,580.75,155.36Z" transform="translate(5.77 6.67)"/><path class="cls-106" d="M1313.14,625.64l-.06,1-33.48,515.39-.6-.22L836.46,978.39h-1.38l1.15-.85Zm-34.44,515.07,33.35-513.07L837.51,977.77Z" transform="translate(5.77 6.67)"/><path class="cls-106" d="M929.43,179.11l207.24,201.06-1.29-.06L785.19,362.56l-1.45.47,1-1.25Zm204.72,200L929.53,180.54,786.08,361.63Z" transform="translate(5.77 6.67)"/><path class="cls-106" d="M731,242.12l.61-.17,396.79,19.9-.32.66L875.7,788.56l-.34-1.27Zm395.88,20.63L732.15,243,876,785.79Z" transform="translate(5.77 6.67)"/><polygon class="cls-106" points="1042.89 9.19 1062.85 105.57 518.86 162.94 683.52 9.19 682.12 9.19 517.26 163.12 517.05 163.16 517 163.35 516.11 164.19 516.85 164.12 516.66 165 517.7 164.03 1063.47 106.48 1064.01 106.43 1043.87 9.19 1042.89 9.19"/><polygon class="cls-106" points="1019.53 9.19 655.54 253.82 452.8 38.92 734.72 9.19 725.5 9.19 451.79 38.06 451.48 38.14 451.27 38.69 655.13 254.78 655.4 255.07 1021.26 9.19 1019.53 9.19"/><path class="cls-106" d="M1447.67,666l.27.9,147.69,485.54-.71-.08-480.22-47.4-1.39.45,1-1.23Zm146.63,485.3L1447.31,668l-331.75,436Z" transform="translate(5.77 6.67)"/><path class="cls-106" d="M1241.65,703.37l.25.15L1472,833.28l-.31.85L1141.82,765.2l-1,.62.27-.77-.62-.13.85-.54.09-.23.23,0Zm227.16,129.22L1241.66,704.48l-98.63,60Z" transform="translate(5.77 6.67)"/><polygon class="cls-106" points="1283.03 9.19 1380.65 1265.43 1055.32 847.05 1233.25 9.19 1232.26 9.19 1054.33 847.07 1054.31 847.41 1054.51 847.55 1380.88 1267.29 1381.86 1268.54 1283.99 9.19 1283.03 9.19"/><path class="cls-106" d="M1211.68,117l.29.52,186,332.67-1-.18-463.7-78.42.05-.32-.31-.51Zm184.45,331.9L1211.45,118.48l-277,252.28Z" transform="translate(5.77 6.67)"/><polygon class="cls-106" points="1261.74 9.19 1260.24 319.17 829.18 286.53 1152.25 9.19 1150.77 9.19 827.69 286.55 826.79 287.31 1260.68 320.17 1261.2 320.21 1262.69 9.19 1261.74 9.19"/><polygon class="cls-106" points="1300.84 9.19 799.36 439.69 652.21 9.19 651.19 9.19 798.69 440.67 798.92 441.33 1302.3 9.19 1300.84 9.19"/><polygon class="cls-106" points="884.9 9.19 731.79 323.41 666.72 9.19 665.74 9.19 731.15 324.98 731.43 326.36 885.98 9.19 884.9 9.19"/><polygon class="cls-106" points="818.51 9.19 769.57 101.81 750.66 9.19 749.68 9.19 768.89 103.32 769.17 104.63 819.59 9.19 818.51 9.19"/><path class="cls-106" d="M1352.78,248.63l.29.86,309,907.91L942.55,804l.12-.51-.28-.2Zm307.65,906.93-308-904.89L943.53,803.39Z" transform="translate(5.77 6.67)"/><path class="cls-106" d="M1323.51,760.59h0l356.62,175.17-.51.48-237.24,217.93-119.52-393,.43-.14Zm355,175.42L1324.09,762l118.78,390.47Z" transform="translate(5.77 6.67)"/><path class="cls-106" d="M1488.49,334v1.11l-10.08,262-.25.13-659,316.5-.26-.85.24-.21Zm-11.06,262.5,10-260.3L822.51,911.08Z" transform="translate(5.77 6.67)"/><path class="cls-106" d="M1201.75,331.62l.42.19,383.91,193.53-.55.48-345.82,299-.08-.94-38.2-491.69Zm382.63,193.93L1202.45,333l38.07,489.77Z" transform="translate(5.77 6.67)"/><polygon class="cls-106" points="1395.28 9.19 1570.59 392.14 1077.97 320.59 1255.61 9.19 1254.51 9.19 1076.78 320.72 1076.43 321.35 1571.32 393.23 1572.19 393.35 1396.34 9.19 1395.28 9.19"/><path class="cls-106" d="M1375.26,431l.21.36,263.11,456.79-.7.62L1146.11,516.24Zm261.3,455.57L1374.83,432.2l-226.74,84.32Z" transform="translate(5.77 6.67)"/><path class="cls-106" d="M1350.88,225.36l242.3,60.37-.09.45-60.71,320.36-182-380.49.27-.13Zm241.19,61.09-240.41-59.9L1532,603.49Z" transform="translate(5.77 6.67)"/><polygon class="cls-106" points="1358.2 9.19 1605.13 178.52 1436.39 546.84 1190.27 9.19 1189.23 9.19 1435.96 548.19 1436.39 549.15 1606.17 178.56 1606.35 178.18 1359.91 9.19 1358.2 9.19"/><polygon class="cls-106" points="1461.2 9.19 1421.62 144.71 1073.26 17.85 1082.17 9.19 1080.79 9.19 1072.04 17.7 1071.49 18.24 1072.1 18.46 1072.41 18.68 1072.49 18.61 1421.77 145.79 1422.25 145.96 1462.2 9.19 1461.2 9.19"/><path class="cls-106" d="M1600.42,293.51,1677.51,514l-.52.12L1375.25,584l-.13-.52-.35-.26Zm75.82,219.75-76.15-217.78-223.72,287.2Z" transform="translate(5.77 6.67)"/><path class="cls-106" d="M1257.5,524.28l.62-.15L1740.5,412.44l-.54.95L1470.75,894.51l-.42-.74Zm481.1-110.41L1259,524.92l211.75,367.66Z" transform="translate(5.77 6.67)"/><path class="cls-106" d="M1085.21,177.82h.6l684.58-13.3-.62.81L1247.4,835.93l-.23-1Zm683.17-12.32-681.95,13.24,161.43,655Z" transform="translate(5.77 6.67)"/><path class="cls-106" d="M1705.2,12.91l-1.66,199.75-.58-.12L1397.9,149.91Zm-2.57,198.57,1.64-197.09L1401,149.56Z" transform="translate(5.77 6.67)"/><path class="cls-106" d="M1359.12,82.49l1,.2,370.82,76.1-.39.6L1551.41,437.45l-.39-.72L1359.71,83.6h0l-.08-.24Zm370.23,77L1360.92,83.85l190.54,351.71Z" transform="translate(5.77 6.67)"/><polygon class="cls-106" points="1848.51 9.19 1859.38 324.21 1201.32 9.19 1199.09 9.19 1859.68 325.42 1860.4 325.76 1849.47 9.19 1848.51 9.19"/><polygon class="cls-106" points="1521.37 9.19 1742.6 115.1 1445.33 247.64 1347.41 9.19 1346.38 9.19 1444.82 248.92 1743.95 115.56 1744.91 115.13 1523.6 9.19 1521.37 9.19"/><polygon class="cls-106" points="1395.94 9.19 1210.21 154.09 1252.54 9.19 1251.54 9.19 1208.88 155.25 1208.46 156.69 1397.51 9.19 1395.94 9.19"/><polygon class="cls-106" points="1925.53 974.96 1688.98 1047.63 1865.88 366.37 1925.53 650.01 1925.53 645.36 1866.4 364.18 1865.46 364.15 1687.85 1048.19 1687.82 1048.38 1688.06 1048.92 1925.53 975.98 1925.53 974.96"/><path class="cls-106" d="M1702.05,374.72l.31.4,197.51,269.07-.61.73L1577.51,477l.17-.32-.27-.48Zm195.8,268.38-196-267L1578.6,476.52Z" transform="translate(5.77 6.67)"/><path class="cls-106" d="M1506.61,268.62l.65-.21.18.09,382.85,199.75-.1.37-170.54,656.77h-.94ZM1889.2,468.74,1507.9,269.83l211.29,853.47Z" transform="translate(5.77 6.67)"/><path class="cls-106" d="M1750.8,132.73v.86l-11.56,412.17-.85-1L1520.55,268.35l-.15.08-.17-.48-.29-.36.48-.29Zm-12.47,410.42,11.46-408.71L1521.38,267.86Z" transform="translate(5.77 6.67)"/><path class="cls-106" d="M1583.18,292.83,1726.74,475l-.37.29-62.54,51-81.47-233Zm142.25,182L1584.2,295.67l80.12,229Z" transform="translate(5.77 6.67)"/><polygon class="cls-106" points="1925.53 20.47 1914.33 9.19 1912.97 9.19 1925.53 21.83 1925.53 20.47"/><polygon class="cls-106" points="1925.53 277.55 1431.7 196.74 1687.75 9.19 1686.11 9.19 1429.27 197.32 1925.53 278.52 1925.53 277.55"/><polygon class="cls-106" points="1925.53 415.9 1874.81 445.53 1436.39 142.19 1925.53 222.23 1925.53 221.26 1434.44 140.88 1433.45 140.73 1434 141.71 1874.52 446.5 1874.77 446.67 1925.53 417.02 1925.53 415.9"/><polygon class="cls-106" points="1794.35 9.19 1555.97 397.99 1542.56 9.19 1541.6 9.19 1555.07 399.63 1555.13 401.22 1795.47 9.19 1794.35 9.19"/><path class="cls-106" d="M480,885.37a12.91,12.91,0,1,1,16.3,8.25,12.91,12.91,0,0,1-16.3-8.25Z" transform="translate(5.77 6.67)"/><path class="cls-106" d="M912.63,433.6a11.86,11.86,0,0,1,7.47-15,11.73,11.73,0,0,1,14.84,7.44.56.56,0,0,1,0,.12,11.87,11.87,0,0,1-7.47,15,11.74,11.74,0,0,1-14.84-7.45S912.64,433.64,912.63,433.6Z" transform="translate(5.77 6.67)"/><path class="cls-106" d="M1044,970.6a4.06,4.06,0,0,1,2.56-5.13,4,4,0,0,1,5.06,2.54l0,0a4,4,0,0,1-7.65,2.56h0Z" transform="translate(5.77 6.67)"/><path class="cls-106" d="M480.56,885.13a12.28,12.28,0,1,1,23.28-7.85l0,.09a12.28,12.28,0,0,1-23.31,7.76Z" transform="translate(5.77 6.67)"/><path class="cls-106" d="M552.29,1016.41a7.9,7.9,0,1,1,10,5A7.92,7.92,0,0,1,552.29,1016.41Z" transform="translate(5.77 6.67)"/><path class="cls-106" d="M701.18,56.3a4,4,0,0,1,2.5-5,4,4,0,0,1,5,2.52h0a4,4,0,0,1-2.5,5,3.92,3.92,0,0,1-5-2.48Z" transform="translate(5.77 6.67)"/><path class="cls-106" d="M1140,800.23a4,4,0,0,1,2.5-5,3.9,3.9,0,0,1,4.93,2.47v0a3.92,3.92,0,0,1-7.32,2.82c0-.11-.08-.23-.12-.34Z" transform="translate(5.77 6.67)"/><path class="cls-106" d="M543,1019.47a17.77,17.77,0,1,1,22.49,11.23A17.82,17.82,0,0,1,543,1019.47Z" transform="translate(5.77 6.67)"/><path class="cls-106" d="M583.06,585.51a8.55,8.55,0,1,1,10.82,5.4A8.59,8.59,0,0,1,583.06,585.51Z" transform="translate(5.77 6.67)"/><path class="cls-106" d="M454.17,995.78a6.45,6.45,0,1,1,8.16,4.08,6.47,6.47,0,0,1-8.16-4.08Z" transform="translate(5.77 6.67)"/><path class="cls-106" d="M991,435.49a4.72,4.72,0,1,1,6,3A4.75,4.75,0,0,1,991,435.49Z" transform="translate(5.77 6.67)"/><path class="cls-106" d="M584.52,585a7,7,0,1,1,8.79,4.45A7,7,0,0,1,584.52,585Z" transform="translate(5.77 6.67)"/><path class="cls-106" d="M160,146.79a6.95,6.95,0,1,1,13.17-4.42l0,0a7,7,0,0,1-4.42,8.83,6.92,6.92,0,0,1-8.75-4.38Z" transform="translate(5.77 6.67)"/><path class="cls-106" d="M418.83,410.6a5.7,5.7,0,1,1,7.22,3.61,5.73,5.73,0,0,1-7.22-3.61Z" transform="translate(5.77 6.67)"/><path class="cls-106" d="M393.69,317.55a8.2,8.2,0,0,1,5.13-10.35,8.12,8.12,0,0,1,10.25,5.16l0,0A8.22,8.22,0,0,1,404,322.75a8.11,8.11,0,0,1-10.24-5.17Z" transform="translate(5.77 6.67)"/><path class="cls-106" d="M806.73,1171.58a9.32,9.32,0,1,1,11.76,6A9.31,9.31,0,0,1,806.73,1171.58Z" transform="translate(5.77 6.67)"/><path class="cls-106" d="M1193,762.49a5.27,5.27,0,0,1,3.33-6.65,5.21,5.21,0,0,1,6.59,3.3v0a5.23,5.23,0,1,1-9.93,3.31Z" transform="translate(5.77 6.67)"/><path class="cls-106" d="M1276,1121.26a12.82,12.82,0,0,1,8.08-16.24h0a12.83,12.83,0,1,1-8.09,16.25Z" transform="translate(5.77 6.67)"/><path class="cls-106" d="M808.12,1171.11a7.86,7.86,0,1,1,9.94,5A7.89,7.89,0,0,1,808.12,1171.11Z" transform="translate(5.77 6.67)"/><path class="cls-106" d="M797.38,992a11.76,11.76,0,1,1,14.86,7.53A11.77,11.77,0,0,1,797.38,992Z" transform="translate(5.77 6.67)"/><path class="cls-106" d="M998.93,521.67a8.64,8.64,0,0,1,5.45-10.91,8.54,8.54,0,0,1,10.81,5.42l0,.07a8.65,8.65,0,0,1-5.45,10.91A8.55,8.55,0,0,1,999,521.75Z" transform="translate(5.77 6.67)"/><path class="cls-106" d="M1285.8,967.08a5.87,5.87,0,0,1,3.69-7.39,5.79,5.79,0,0,1,7.32,3.68v0a5.86,5.86,0,0,1-3.68,7.39,5.79,5.79,0,0,1-7.32-3.66Z" transform="translate(5.77 6.67)"/><path class="cls-106" d="M802.81,990.18a6.07,6.07,0,1,1,7.7,3.89A6.07,6.07,0,0,1,802.81,990.18Z" transform="translate(5.77 6.67)"/><path class="cls-106" d="M823.64,825.66a12.36,12.36,0,1,1,15.64,7.81,12.39,12.39,0,0,1-15.64-7.81Z" transform="translate(5.77 6.67)"/><path class="cls-106" d="M824.25,1215.16a5.64,5.64,0,1,1,7.14,3.56,5.66,5.66,0,0,1-7.14-3.56Z" transform="translate(5.77 6.67)"/><path class="cls-106" d="M1201.61,807.79a12.83,12.83,0,1,1,16.25,8.22A12.84,12.84,0,0,1,1201.61,807.79Z" transform="translate(5.77 6.67)"/><path class="cls-106" d="M826.92,824.57a8.93,8.93,0,0,1,5.62-11.24A8.81,8.81,0,0,1,843.65,819v0a8.84,8.84,0,0,1-16.77,5.58Z" transform="translate(5.77 6.67)"/><path class="cls-106" d="M723.84,443.66a10.13,10.13,0,1,1,12.83,6.39,10.16,10.16,0,0,1-12.83-6.39Z" transform="translate(5.77 6.67)"/><path class="cls-106" d="M869.64,1085.83a12,12,0,1,1,15.18,7.57,12,12,0,0,1-15.18-7.57Z" transform="translate(5.77 6.67)"/><path class="cls-106" d="M1069.83,623.73a6.13,6.13,0,1,1,7.75,3.91A6.14,6.14,0,0,1,1069.83,623.73Z" transform="translate(5.77 6.67)"/><path class="cls-106" d="M728.17,442.2a5.56,5.56,0,0,1,3.5-7,5.49,5.49,0,0,1,7,3.48l0,.05a5.52,5.52,0,1,1-10.42,3.62l-.05-.14Z" transform="translate(5.77 6.67)"/><path class="cls-106" d="M644.76,340.35a9,9,0,1,1,11.41,5.78A9,9,0,0,1,644.76,340.35Z" transform="translate(5.77 6.67)"/><path class="cls-106" d="M863.46,332.93a7.63,7.63,0,1,1,14.47-4.87v0a7.66,7.66,0,0,1-14.53,4.83Z" transform="translate(5.77 6.67)"/><path class="cls-106" d="M1026.22,556.53a5.55,5.55,0,0,1,3.49-7,5.48,5.48,0,0,1,6.93,3.48v0a5.5,5.5,0,0,1-10.43,3.48Z" transform="translate(5.77 6.67)"/><path class="cls-106" d="M603.78,313.2a13.13,13.13,0,1,1,16.58,8.39h0A13.23,13.23,0,0,1,603.78,313.2Z" transform="translate(5.77 6.67)"/><path class="cls-106" d="M830.36,693a11,11,0,0,1,6.91-13.86A10.87,10.87,0,0,1,851,686.08l0,.06A11,11,0,0,1,844.11,700a10.86,10.86,0,0,1-13.73-6.9Z" transform="translate(5.77 6.67)"/><path class="cls-106" d="M1056.89,567.38a5.91,5.91,0,1,1,7.46,3.78A5.91,5.91,0,0,1,1056.89,567.38Z" transform="translate(5.77 6.67)"/><path class="cls-106" d="M610.24,311a6.35,6.35,0,1,1,8,4,6.39,6.39,0,0,1-8-4Z" transform="translate(5.77 6.67)"/><path class="cls-106" d="M358.51,112.21a7.83,7.83,0,0,1,4.93-9.88,7.75,7.75,0,0,1,9.78,5,7.84,7.84,0,0,1-4.94,9.88A7.74,7.74,0,0,1,358.51,112.21Z" transform="translate(5.77 6.67)"/><path class="cls-106" d="M436.35,334.37a6.84,6.84,0,0,1,4.28-8.64,6.76,6.76,0,0,1,8.54,4.32v0a6.8,6.8,0,0,1-12.73,4.79c-.06-.17-.12-.34-.17-.51Z" transform="translate(5.77 6.67)"/><path class="cls-106" d="M391.36,516.2a11.65,11.65,0,1,1,14.72,7.49A11.65,11.65,0,0,1,391.36,516.2Z" transform="translate(5.77 6.67)"/><path class="cls-106" d="M534.54,357.28a8.76,8.76,0,1,1,11.07,5.52A8.8,8.8,0,0,1,534.54,357.28Z" transform="translate(5.77 6.67)"/><path class="cls-106" d="M531.45,266.32a11.64,11.64,0,1,1,14.69,7.44A11.63,11.63,0,0,1,531.45,266.32Z" transform="translate(5.77 6.67)"/><path class="cls-106" d="M552.66,165.93a13.19,13.19,0,1,1,25-8.39l0,.07a13.32,13.32,0,0,1-8.38,16.79A13.18,13.18,0,0,1,552.69,166Z" transform="translate(5.77 6.67)"/><path class="cls-106" d="M457.29,210.44a8.4,8.4,0,1,1,0,.07Z" transform="translate(5.77 6.67)"/><path class="cls-106" d="M1065,792.34a8.38,8.38,0,1,1,10.58,5.35h0A8.42,8.42,0,0,1,1065,792.34Z" transform="translate(5.77 6.67)"/><path class="cls-106" d="M1163.51,1174.48a7.06,7.06,0,1,1,0,.07Z" transform="translate(5.77 6.67)"/><path class="cls-106" d="M1279,1042a3.54,3.54,0,1,1,4.46,2.27h0A3.56,3.56,0,0,1,1279,1042Z" transform="translate(5.77 6.67)"/><path class="cls-106" d="M1068.54,791.15a4.59,4.59,0,1,1,5.79,2.93A4.59,4.59,0,0,1,1068.54,791.15Z" transform="translate(5.77 6.67)"/><path class="cls-106" d="M745.51,419.37a6.73,6.73,0,1,1,8.51,4.27h0a6.7,6.7,0,0,1-8.48-4.24Z" transform="translate(5.77 6.67)"/><path class="cls-106" d="M822.68,914.57a8,8,0,1,1,10.15,5.13A8,8,0,0,1,822.68,914.57Z" transform="translate(5.77 6.67)"/><path class="cls-106" d="M1319.63,261.7a7.31,7.31,0,1,1,0,.05Z" transform="translate(5.77 6.67)"/><path class="cls-106" d="M746.46,419.11a5.76,5.76,0,1,1,7.26,3.68h0A5.79,5.79,0,0,1,746.46,419.11Z" transform="translate(5.77 6.67)"/><path class="cls-106" d="M457.2,645.54a10.87,10.87,0,1,1,13.72,6.92h0a10.83,10.83,0,0,1-13.67-6.89Z" transform="translate(5.77 6.67)"/><path class="cls-106" d="M607.32,225.14a7.36,7.36,0,1,1,0,.06Z" transform="translate(5.77 6.67)"/><path class="cls-106" d="M678.75,596.77a4.13,4.13,0,1,1,5.24,2.61,4.16,4.16,0,0,1-5.24-2.61Z" transform="translate(5.77 6.67)"/><path class="cls-106" d="M462,644a5.8,5.8,0,1,1,7.32,3.71A5.81,5.81,0,0,1,462,644Z" transform="translate(5.77 6.67)"/><path class="cls-106" d="M295.61,361.73a5.51,5.51,0,1,1,7,3.54,5.5,5.5,0,0,1-7-3.54Z" transform="translate(5.77 6.67)"/><path class="cls-106" d="M667,336.43a5.18,5.18,0,1,1,6.54,3.31A5.17,5.17,0,0,1,667,336.43Z" transform="translate(5.77 6.67)"/><path class="cls-106" d="M296.58,361.39a4.5,4.5,0,1,1,5.68,2.88A4.54,4.54,0,0,1,296.58,361.39Z" transform="translate(5.77 6.67)"/><path class="cls-106" d="M221.68,189.62a10.85,10.85,0,0,1,6.84-13.68,10.74,10.74,0,0,1,13.57,6.82l0,.06a10.76,10.76,0,1,1-20.41,6.85Z" transform="translate(5.77 6.67)"/><path class="cls-106" d="M439.22,774.92a9.79,9.79,0,1,1,0,.1Z" transform="translate(5.77 6.67)"/><path class="cls-106" d="M659.32,158.83a6.36,6.36,0,1,1,12-4.06v0a6.43,6.43,0,0,1-4,8.1,6.36,6.36,0,0,1-8-4Z" transform="translate(5.77 6.67)"/><path class="cls-106" d="M228,187.48a4.09,4.09,0,1,1,7.75-2.6h0a4.13,4.13,0,0,1-2.62,5.22A4.08,4.08,0,0,1,228,187.48Z" transform="translate(5.77 6.67)"/><path class="cls-106" d="M918.19,314.63a9.63,9.63,0,1,1,12.19,6.09,9.64,9.64,0,0,1-12.19-6.09Z" transform="translate(5.77 6.67)"/><path class="cls-106" d="M1042.92,838.91a5.08,5.08,0,1,1,6.41,3.24A5.09,5.09,0,0,1,1042.92,838.91Z" transform="translate(5.77 6.67)"/><path class="cls-106" d="M1575.16,464.38a10.79,10.79,0,1,1,13.62,6.81A10.82,10.82,0,0,1,1575.16,464.38Z" transform="translate(5.77 6.67)"/><path class="cls-106" d="M1345.09,852.46a5.58,5.58,0,0,1,3.53-7,5.5,5.5,0,0,1,7,3.46l0,.06a5.54,5.54,0,0,1-10.47,3.64S1345.1,852.51,1345.09,852.46Z" transform="translate(5.77 6.67)"/><path class="cls-106" d="M1042.72,839a5.34,5.34,0,0,1,3.36-6.75,5.28,5.28,0,0,1,6.68,3.35l0,.07a5.31,5.31,0,1,1-9.93,3.76A3.09,3.09,0,0,1,1042.72,839Z" transform="translate(5.77 6.67)"/><path class="cls-106" d="M848.38,940.09a13.64,13.64,0,1,1,17.26,8.62,13.69,13.69,0,0,1-17.26-8.62Z" transform="translate(5.77 6.67)"/><path class="cls-106" d="M843.3,1244.4a12.12,12.12,0,1,1,15.3,7.77A12.11,12.11,0,0,1,843.3,1244.4Z" transform="translate(5.77 6.67)"/><path class="cls-106" d="M972,944.82a11.61,11.61,0,1,1,14.71,7.34A11.65,11.65,0,0,1,972,944.82Z" transform="translate(5.77 6.67)"/><path class="cls-106" d="M854.38,938.09a7.24,7.24,0,1,1,9.14,4.62A7.24,7.24,0,0,1,854.38,938.09Z" transform="translate(5.77 6.67)"/><path class="cls-106" d="M705.25,631.35a7.08,7.08,0,0,1,4.46-8.94,7,7,0,0,1,8.85,4.42l0,.08a7,7,0,0,1-13.34,4.44Z" transform="translate(5.77 6.67)"/><path class="cls-106" d="M837.37,1045.17a5.08,5.08,0,1,1,6.41,3.25A5.13,5.13,0,0,1,837.37,1045.17Z" transform="translate(5.77 6.67)"/><path class="cls-106" d="M1109.72,854.36a5.52,5.52,0,1,1,7,3.54A5.53,5.53,0,0,1,1109.72,854.36Z" transform="translate(5.77 6.67)"/><path class="cls-106" d="M702.22,632.35a10.26,10.26,0,1,1,13,6.53h0A10.3,10.3,0,0,1,702.22,632.35Z" transform="translate(5.77 6.67)"/><path class="cls-106" d="M478,504.82a13.44,13.44,0,1,1,0,.06Z" transform="translate(5.77 6.67)"/><path class="cls-106" d="M1063.38,676.45a6.32,6.32,0,1,1,8,4h0a6.3,6.3,0,0,1-8-4Z" transform="translate(5.77 6.67)"/><path class="cls-106" d="M481,503.83a10.31,10.31,0,1,1,0,.06Z" transform="translate(5.77 6.67)"/><path class="cls-106" d="M505.47,324.84a7.25,7.25,0,1,1,9.17,4.59,7.3,7.3,0,0,1-9.17-4.59h0Z" transform="translate(5.77 6.67)"/><path class="cls-106" d="M776.72,2.53H761.58a10.23,10.23,0,0,0-2.05,10A10.11,10.11,0,0,0,772.27,19l.08,0A10.25,10.25,0,0,0,778.79,6.1,10.08,10.08,0,0,0,776.72,2.53Z" transform="translate(5.77 6.67)"/><path class="cls-106" d="M950.72,403.13a5.34,5.34,0,1,1,6.74,3.42,5.34,5.34,0,0,1-6.74-3.42Z" transform="translate(5.77 6.67)"/><path class="cls-106" d="M505.56,324.81a7.15,7.15,0,1,1,13.56-4.57l0,.05A7.16,7.16,0,0,1,505.63,325,1.42,1.42,0,0,1,505.56,324.81Z" transform="translate(5.77 6.67)"/><path class="cls-106" d="M777.83,759.4a6.08,6.08,0,1,1,7.69,3.88A6.08,6.08,0,0,1,777.83,759.4Z" transform="translate(5.77 6.67)"/><path class="cls-106" d="M1537.19,24.45a6.44,6.44,0,1,1,12.22-4.07h0a6.44,6.44,0,1,1-12.22,4.06Z" transform="translate(5.77 6.67)"/><path class="cls-106" d="M674.2,45.2a9.4,9.4,0,0,1,5.9-11.82,9.25,9.25,0,0,1,11.71,5.87l0,.07a9.4,9.4,0,0,1-5.9,11.82,9.28,9.28,0,0,1-11.73-5.9Z" transform="translate(5.77 6.67)"/><path class="cls-106" d="M749.79,121a6.07,6.07,0,0,1,3.82-7.65,6,6,0,0,1,7.57,3.79l0,0a6.06,6.06,0,0,1-3.82,7.65,6,6,0,0,1-7.57-3.79Z" transform="translate(5.77 6.67)"/><path class="cls-106" d="M832.51,979.25a4.23,4.23,0,1,1,5.34,2.73,4.19,4.19,0,0,1-5.31-2.65Z" transform="translate(5.77 6.67)"/><path class="cls-106" d="M1299.3,631.07a14,14,0,1,1,17.7,9A14,14,0,0,1,1299.3,631.07Z" transform="translate(5.77 6.67)"/><path class="cls-106" d="M825.37,981.64a11.85,11.85,0,1,1,15,7.48,11.88,11.88,0,0,1-15-7.48Z" transform="translate(5.77 6.67)"/><path class="cls-106" d="M776.22,365a9.4,9.4,0,1,1,11.89,6l-.06,0A9.41,9.41,0,0,1,776.22,365Z" transform="translate(5.77 6.67)"/><path class="cls-106" d="M924.83,181.38a4.94,4.94,0,0,1,3.11-6.23,4.89,4.89,0,0,1,6.18,3.09h0a5,5,0,0,1-3.12,6.24,4.89,4.89,0,0,1-6.18-3.11Z" transform="translate(5.77 6.67)"/><path class="cls-106" d="M1123.53,383.59a13.73,13.73,0,1,1,0,.07Z" transform="translate(5.77 6.67)"/><path class="cls-106" d="M777.33,364.65a8.2,8.2,0,1,1,15.55-5.22l0,.09a8.21,8.21,0,1,1-15.36,5.8C777.47,365.1,777.39,364.88,777.33,364.65Z" transform="translate(5.77 6.67)"/><path class="cls-106" d="M726.48,244.09a5.32,5.32,0,1,1,6.71,3.42A5.33,5.33,0,0,1,726.48,244.09Z" transform="translate(5.77 6.67)"/><path class="cls-106" d="M871,788.75a5.13,5.13,0,1,1,6.52,3.26,5.13,5.13,0,0,1-6.52-3.26Z" transform="translate(5.77 6.67)"/><path class="cls-106" d="M1120.11,264.79a7.94,7.94,0,1,1,10.06,5,8,8,0,0,1-10.06-5Z" transform="translate(5.77 6.67)"/><path class="cls-106" d="M726.35,244.18a5.5,5.5,0,1,1,6.95,3.52,5.5,5.5,0,0,1-6.95-3.52Z" transform="translate(5.77 6.67)"/><path class="cls-106" d="M507,158.5a5,5,0,0,1,3.15-6.29,4.94,4.94,0,0,1,6.24,3.14v0a5,5,0,0,1-3.15,6.3,4.94,4.94,0,0,1-6.24-3.15Z" transform="translate(5.77 6.67)"/><path class="cls-106" d="M1046.73,103a11.52,11.52,0,1,1,21.83-7.35l0,.07a11.51,11.51,0,1,1-21.82,7.36Z" transform="translate(5.77 6.67)"/><path class="cls-106" d="M497.68,161.56a14.88,14.88,0,0,1,9.41-18.76,14.72,14.72,0,0,1,18.6,9.33l0,.08A14.86,14.86,0,0,1,516.31,171a14.71,14.71,0,0,1-18.6-9.33Z" transform="translate(5.77 6.67)"/><path class="cls-106" d="M439.81,34a6.58,6.58,0,1,1,12.48-4.16h0a6.64,6.64,0,0,1-4.18,8.36A6.56,6.56,0,0,1,439.83,34Z" transform="translate(5.77 6.67)"/><path class="cls-106" d="M644.21,249.61a5.81,5.81,0,1,1,7.35,3.68A5.85,5.85,0,0,1,644.21,249.61Z" transform="translate(5.77 6.67)"/><path class="cls-106" d="M441.87,33.27a4.43,4.43,0,1,1,8.4-2.82v0a4.47,4.47,0,0,1-2.81,5.63,4.42,4.42,0,0,1-5.59-2.8Z" transform="translate(5.77 6.67)"/><path class="cls-106" d="M1106.84,1107a8.24,8.24,0,1,1,0,.09Z" transform="translate(5.77 6.67)"/><path class="cls-106" d="M1441.55,669a5.48,5.48,0,1,1,0,.06Z" transform="translate(5.77 6.67)"/><path class="cls-106" d="M1587.22,1154.44a8.16,8.16,0,1,1,10.31,5.23A8.16,8.16,0,0,1,1587.22,1154.44Z" transform="translate(5.77 6.67)"/><path class="cls-106" d="M1105.29,1107.57a9.86,9.86,0,1,1,12.45,6.29h0A9.91,9.91,0,0,1,1105.29,1107.57Z" transform="translate(5.77 6.67)"/><path class="cls-106" d="M1132,768a10.26,10.26,0,1,1,13,6.48A10.3,10.3,0,0,1,1132,768Z" transform="translate(5.77 6.67)"/><path class="cls-106" d="M1232.32,707a9.83,9.83,0,1,1,12.43,6.29A9.83,9.83,0,0,1,1232.32,707Z" transform="translate(5.77 6.67)"/><path class="cls-106" d="M1463.22,836.53a9,9,0,1,1,17.06-5.76l0,.08a9,9,0,1,1-17.06,5.75Z" transform="translate(5.77 6.67)"/><path class="cls-106" d="M1136.77,766.38a5.21,5.21,0,1,1,6.57,3.33A5.2,5.2,0,0,1,1136.77,766.38Z" transform="translate(5.77 6.67)"/><path class="cls-106" d="M1042.29,842.76a7.11,7.11,0,1,1,9,4.54,7.1,7.1,0,0,1-9-4.54Z" transform="translate(5.77 6.67)"/><path class="cls-106" d="M1365.39,1265h20.19a11.16,11.16,0,0,0-13.53-15.33l0,0a11.22,11.22,0,0,0-7.07,14.14A11.78,11.78,0,0,0,1365.39,1265Z" transform="translate(5.77 6.67)"/><path class="cls-106" d="M1042.2,842.82a7.23,7.23,0,1,1,9.13,4.62,7.23,7.23,0,0,1-9.13-4.62Z" transform="translate(5.77 6.67)"/><path class="cls-106" d="M926.71,373.29a7.06,7.06,0,0,1,4.45-8.89,7,7,0,0,1,8.81,4.4l0,.07a7,7,0,0,1-13.28,4.42Z" transform="translate(5.77 6.67)"/><path class="cls-106" d="M1202.41,120.76a9.64,9.64,0,1,1,18.27-6.13v0a9.64,9.64,0,1,1-18.26,6.16Z" transform="translate(5.77 6.67)"/><path class="cls-106" d="M1388.41,452.38a9.15,9.15,0,1,1,11.59,5.79,9.18,9.18,0,0,1-11.59-5.79Z" transform="translate(5.77 6.67)"/><path class="cls-106" d="M927.48,373a6.21,6.21,0,1,1,11.77-4v0a6.27,6.27,0,0,1-4,7.89,6.2,6.2,0,0,1-7.82-3.93Z" transform="translate(5.77 6.67)"/><path class="cls-106" d="M812.26,283.58a10.58,10.58,0,0,1,6.67-13.35,10.47,10.47,0,0,1,13.23,6.64l0,.07a10.5,10.5,0,1,1-19.84,6.87A1.55,1.55,0,0,1,812.26,283.58Z" transform="translate(5.77 6.67)"/><path class="cls-106" d="M1250.8,314.4a4.41,4.41,0,0,1,2.78-5.55,4.36,4.36,0,0,1,5.51,2.78v0a4.38,4.38,0,1,1-8.18,3.12A2.65,2.65,0,0,1,1250.8,314.4Z" transform="translate(5.77 6.67)"/><path class="cls-106" d="M818.2,281.59a4.28,4.28,0,1,1,5.42,2.69l-.07,0A4.27,4.27,0,0,1,818.2,281.59Z" transform="translate(5.77 6.67)"/><path class="cls-106" d="M784.07,436.93a9.89,9.89,0,0,1,6.22-12.43,9.78,9.78,0,0,1,12.36,6.2l0,.07a9.81,9.81,0,0,1-18.45,6.66l-.15-.47Z" transform="translate(5.77 6.67)"/><path class="cls-106" d="M717.65,321a8.64,8.64,0,1,1,10.91,5.52A8.64,8.64,0,0,1,717.65,321Z" transform="translate(5.77 6.67)"/><path class="cls-106" d="M757,98.74a7,7,0,1,1,13.25-4.43v0A7,7,0,1,1,757,98.8Z" transform="translate(5.77 6.67)"/><path class="cls-106" d="M934.9,806.18a8.31,8.31,0,1,1,10.5,5.32A8.31,8.31,0,0,1,934.9,806.18Z" transform="translate(5.77 6.67)"/><path class="cls-106" d="M1346.25,251.79a6.68,6.68,0,1,1,0,.06Z" transform="translate(5.77 6.67)"/><path class="cls-106" d="M1656.77,1158a4.79,4.79,0,0,1,3-6,4.72,4.72,0,0,1,6,3l0,0a4.75,4.75,0,0,1-8.87,3.38c-.05-.13-.09-.25-.13-.38Z" transform="translate(5.77 6.67)"/><path class="cls-106" d="M933.71,806.57a9.59,9.59,0,1,1,12.14,6.06,9.62,9.62,0,0,1-12.14-6.06Z" transform="translate(5.77 6.67)"/><path class="cls-106" d="M1317.38,763a6.25,6.25,0,0,1,11.84-4l0,.06a6.25,6.25,0,1,1-11.82,4.08.93.93,0,0,1,0-.13Z" transform="translate(5.77 6.67)"/><path class="cls-106" d="M1437.92,1154.87a5,5,0,1,1,6.27,3.19A5,5,0,0,1,1437.92,1154.87Z" transform="translate(5.77 6.67)"/><path class="cls-106" d="M1667.12,939.94a12.86,12.86,0,1,1,24.37-8.21l0,.09a12.84,12.84,0,0,1-24.37,8.12Z" transform="translate(5.77 6.67)"/><path class="cls-106" d="M1316.49,763.29a7.23,7.23,0,1,1,9.14,4.58,7.24,7.24,0,0,1-9.14-4.58Z" transform="translate(5.77 6.67)"/><path class="cls-106" d="M1480.26,337.67a8.18,8.18,0,1,1,10.38,5.15,8.2,8.2,0,0,1-10.38-5.15Z" transform="translate(5.77 6.67)"/><path class="cls-106" d="M1467.32,600.33a11.17,11.17,0,1,1,0,.09Z" transform="translate(5.77 6.67)"/><path class="cls-106" d="M1193.94,334.91a8.48,8.48,0,0,1,5.34-10.68,8.36,8.36,0,0,1,10.58,5.31l0,0A8.41,8.41,0,0,1,1194,335Z" transform="translate(5.77 6.67)"/><path class="cls-106" d="M1232,826.5A8.55,8.55,0,1,1,1242.8,832h0A8.55,8.55,0,0,1,1232,826.5Z" transform="translate(5.77 6.67)"/><path class="cls-106" d="M1576.45,528.35a9.22,9.22,0,1,1,11.64,5.9A9.22,9.22,0,0,1,1576.45,528.35Z" transform="translate(5.77 6.67)"/><path class="cls-106" d="M1194.42,334.72a8,8,0,0,1,5-10.05,7.87,7.87,0,0,1,10,5l0,.07a7.9,7.9,0,1,1-15,5Z" transform="translate(5.77 6.67)"/><path class="cls-106" d="M1067,315.8a4.73,4.73,0,1,1,0,.06Z" transform="translate(5.77 6.67)"/><path class="cls-106" d="M1561.62,387.42a4.21,4.21,0,1,1,5.32,2.7A4.28,4.28,0,0,1,1561.62,387.42Z" transform="translate(5.77 6.67)"/><path class="cls-106" d="M1063.29,317a8,8,0,1,1,0,.08Z" transform="translate(5.77 6.67)"/><path class="cls-106" d="M1140.45,518.62a7,7,0,1,1,0,.06Z" transform="translate(5.77 6.67)"/><path class="cls-106" d="M1372.17,432.57a3,3,0,1,1,3.84,1.91A3.05,3.05,0,0,1,1372.17,432.57Z" transform="translate(5.77 6.67)"/><path class="cls-106" d="M1630.48,891a8.1,8.1,0,1,1,10.26,5.18A8.09,8.09,0,0,1,1630.48,891Z" transform="translate(5.77 6.67)"/><path class="cls-106" d="M1138.48,519.25A9.12,9.12,0,1,1,1150,525a9.13,9.13,0,0,1-11.54-5.76Z" transform="translate(5.77 6.67)"/><path class="cls-106" d="M1343.52,228.26a7.7,7.7,0,0,1,4.85-9.74h0a7.64,7.64,0,0,1,9.66,4.86v0a7.66,7.66,0,1,1-14.52,4.89Z" transform="translate(5.77 6.67)"/><path class="cls-106" d="M1524.76,607.48a7.86,7.86,0,0,1,5-9.91,7.78,7.78,0,0,1,9.83,4.94v0a7.81,7.81,0,0,1-14.71,5.25c0-.11-.07-.21-.1-.32Z" transform="translate(5.77 6.67)"/><path class="cls-106" d="M1586.9,288a6,6,0,1,1,7.62,3.85h0a6,6,0,0,1-7.58-3.76Z" transform="translate(5.77 6.67)"/><path class="cls-106" d="M1338.56,229.88a12.88,12.88,0,1,1,0,.09Z" transform="translate(5.77 6.67)"/><path class="cls-106" d="M1423.88,543.57a7.11,7.11,0,1,1,9,4.54,7.12,7.12,0,0,1-9-4.54Z" transform="translate(5.77 6.67)"/><path class="cls-106" d="M1596.44,172.86a3.73,3.73,0,0,1,2.36-4.72h0a3.7,3.7,0,0,1,4.68,2.35v0a3.75,3.75,0,0,1-2.36,4.72,3.68,3.68,0,0,1-4.67-2.33Z" transform="translate(5.77 6.67)"/><path class="cls-106" d="M1073.57,2.53h-13.94a11.29,11.29,0,0,0,10.45,19.61l.05,0a11.32,11.32,0,0,0,3.44-19.59Z" transform="translate(5.77 6.67)"/><path class="cls-106" d="M1406.75,141.8a9.93,9.93,0,1,1,18.81-6.35v.05a10,10,0,0,1-6.29,12.62,9.87,9.87,0,0,1-12.5-6.25Z" transform="translate(5.77 6.67)"/><path class="cls-106" d="M1076.47,2.53h-19.8a13.35,13.35,0,0,0-2.67,13,13.2,13.2,0,0,0,16.62,8.51l.11,0a13.33,13.33,0,0,0,8.39-16.83A13.21,13.21,0,0,0,1076.47,2.53Z" transform="translate(5.77 6.67)"/><path class="cls-106" d="M1367.33,586.1a8.29,8.29,0,1,1,10.5,5.25,8.32,8.32,0,0,1-10.5-5.25Z" transform="translate(5.77 6.67)"/><path class="cls-106" d="M1670.83,515.63a6.4,6.4,0,1,1,8.08,4A6.44,6.44,0,0,1,1670.83,515.63Z" transform="translate(5.77 6.67)"/><path class="cls-106" d="M1369.59,585.33a5.86,5.86,0,1,1,7.4,3.74,5.87,5.87,0,0,1-7.4-3.74Z" transform="translate(5.77 6.67)"/><path class="cls-106" d="M1251.6,526.81a7,7,0,1,1,0,.06Z" transform="translate(5.77 6.67)"/><path class="cls-106" d="M1457.18,898.05a14.29,14.29,0,1,1,18,9.14A14.3,14.3,0,0,1,1457.18,898.05Z" transform="translate(5.77 6.67)"/><path class="cls-106" d="M1731.69,415.76a8.28,8.28,0,1,1,10.44,5.32A8.28,8.28,0,0,1,1731.69,415.76Z" transform="translate(5.77 6.67)"/><path class="cls-106" d="M1253.23,526.25a5.26,5.26,0,1,1,6.66,3.42,5.25,5.25,0,0,1-6.66-3.42Z" transform="translate(5.77 6.67)"/><path class="cls-106" d="M1082.81,179.3a3.17,3.17,0,1,1,4,2,3.14,3.14,0,0,1-4-2Z" transform="translate(5.77 6.67)"/><path class="cls-106" d="M1758.93,168.49a11.12,11.12,0,0,1,7-14,11,11,0,0,1,13.9,7l0,.06a11.12,11.12,0,0,1-7,14,11,11,0,0,1-13.91-7Z" transform="translate(5.77 6.67)"/><path class="cls-106" d="M1074.75,182a11.76,11.76,0,0,1,7.41-14.82,11.62,11.62,0,0,1,14.69,7.37l0,.08a11.65,11.65,0,1,1-22.1,7.41Z" transform="translate(5.77 6.67)"/><path class="cls-106" d="M1695,16.87a10.27,10.27,0,0,1,6.48-13h0a10.2,10.2,0,0,1,12.89,6.48v.06a10.25,10.25,0,0,1-6.48,13h0A10.2,10.2,0,0,1,1695,16.93Z" transform="translate(5.77 6.67)"/><path class="cls-106" d="M1688.92,216.78a14.93,14.93,0,1,1,0,.09Z" transform="translate(5.77 6.67)"/><path class="cls-106" d="M1348.3,87.1a12.46,12.46,0,0,1,7.85-15.73,12.32,12.32,0,0,1,15.57,7.82l0,.08a12.36,12.36,0,1,1-23.43,7.91Z" transform="translate(5.77 6.67)"/><path class="cls-106" d="M1543.76,439a8.14,8.14,0,1,1,10.34,5.16,8.16,8.16,0,0,1-10.34-5.16Z" transform="translate(5.77 6.67)"/><path class="cls-106" d="M1723.19,161.5a7.41,7.41,0,0,1,4.66-9.31,7.31,7.31,0,0,1,9.24,4.63v.06a7.33,7.33,0,1,1-13.91,4.63Z" transform="translate(5.77 6.67)"/><path class="cls-106" d="M1347.11,87.5a13.6,13.6,0,1,1,25.78-8.69l0,.09a13.6,13.6,0,1,1-25.79,8.66Z" transform="translate(5.77 6.67)"/><path class="cls-106" d="M1849.11,320a5.27,5.27,0,1,1,6.66,3.38A5.27,5.27,0,0,1,1849.11,320Z" transform="translate(5.77 6.67)"/><path class="cls-106" d="M1431.32,244.27a8.48,8.48,0,0,1,5.34-10.7,8.38,8.38,0,0,1,10.61,5.31l0,.07a8.42,8.42,0,1,1-16,5.32Z" transform="translate(5.77 6.67)"/><path class="cls-106" d="M1734.18,109.71a4,4,0,0,1,2.53-5.11l0,0a4,4,0,0,1,5,2.5l0,.07a4,4,0,0,1-2.51,5.11l0,0a4,4,0,0,1-5-2.55Z" transform="translate(5.77 6.67)"/><path class="cls-106" d="M1192.71,152.35a11.44,11.44,0,1,1,21.7-7.26v0a11.44,11.44,0,1,1-21.7,7.26Z" transform="translate(5.77 6.67)"/><path class="cls-106" d="M1676.07,1043.8a6.85,6.85,0,0,1,4.33-8.65h0a6.76,6.76,0,0,1,8.54,4.31v0a6.84,6.84,0,0,1-12.48,5.61,7.15,7.15,0,0,1-.44-1.33Z" transform="translate(5.77 6.67)"/><path class="cls-106" d="M1855.13,359.28a5.3,5.3,0,1,1,6.69,3.42A5.3,5.3,0,0,1,1855.13,359.28Z" transform="translate(5.77 6.67)"/><path class="cls-106" d="M1674.43,1044.4a8.55,8.55,0,1,1,16.23-5.41h0a8.56,8.56,0,0,1-16.25,5.4Z" transform="translate(5.77 6.67)"/><path class="cls-106" d="M1693.17,378.33a9.27,9.27,0,1,1,11.71,5.93A9.28,9.28,0,0,1,1693.17,378.33Z" transform="translate(5.77 6.67)"/><path class="cls-106" d="M1895.93,645.67a3.75,3.75,0,1,1,4.74,2.38A3.78,3.78,0,0,1,1895.93,645.67Z" transform="translate(5.77 6.67)"/><path class="cls-106" d="M1710.92,1128a8.79,8.79,0,0,1,5.52-11.12h0a8.76,8.76,0,1,1-5.54,11.12Z" transform="translate(5.77 6.67)"/><path class="cls-106" d="M1880.65,471.53a8.55,8.55,0,1,1,0,.05Z" transform="translate(5.77 6.67)"/><path class="cls-106" d="M1512.91,270.31a8.18,8.18,0,1,1,15.51-5.2v0a8.24,8.24,0,0,1-5.19,10.38,8.14,8.14,0,0,1-10.31-5.16Z" transform="translate(5.77 6.67)"/><path class="cls-106" d="M1743,136a7.7,7.7,0,1,1,14.61-4.89v0a7.78,7.78,0,0,1-4.89,9.8,7.69,7.69,0,0,1-9.72-4.9Z" transform="translate(5.77 6.67)"/><path class="cls-106" d="M1727.2,548.29a12.19,12.19,0,1,1,15.39,7.8A12.19,12.19,0,0,1,1727.2,548.29Z" transform="translate(5.77 6.67)"/><path class="cls-106" d="M1716,478.27a10.62,10.62,0,1,1,13.42,6.79A10.63,10.63,0,0,1,1716,478.27Z" transform="translate(5.77 6.67)"/><path class="cls-106" d="M1420.26,191.86a4.72,4.72,0,1,1,9-3v0a4.74,4.74,0,0,1-3,6,4.69,4.69,0,0,1-5.93-2.95Z" transform="translate(5.77 6.67)"/><path class="cls-106" d="M1419.31,192.16a5.75,5.75,0,0,1,3.63-7.25,5.69,5.69,0,0,1,7.18,3.61v0a5.75,5.75,0,0,1-3.62,7.25,5.69,5.69,0,0,1-7.18-3.6Z" transform="translate(5.77 6.67)"/><path class="cls-106" d="M1864,441.12a5.36,5.36,0,1,1,6.75,3.41A5.37,5.37,0,0,1,1864,441.12Z" transform="translate(5.77 6.67)"/><path class="cls-106" d="M1545.47,394.38a4.57,4.57,0,1,1,5.78,2.88A4.59,4.59,0,0,1,1545.47,394.38Z" transform="translate(5.77 6.67)"/></g><g class="cls-107"><polygon class="cls-108" points="905.36 9.19 637.38 249.66 551.77 9.19 550.63 9.19 636.66 250.77 636.92 251.52 906.96 9.19 905.36 9.19"/><polygon class="cls-108" points="996.6 9.19 853.23 253.09 577.06 9.19 575.44 9.19 853.01 254.32 853.49 254.75 997.84 9.19 996.6 9.19"/><path class="cls-108" d="M914.62,280l-.72.66-297.73,279-.35-.5L313.88,122.37l-.58-1.1,1.14.26ZM616.35,558.07,912.48,280.52,315.57,122.93Z" transform="translate(5.77 6.67)"/><polygon class="cls-108" points="1030.07 9.19 771 486.57 492.02 26.06 662.89 9.19 651.96 9.19 491.08 25.07 490.42 25.25 490.69 25.93 770.56 487.93 771.05 488.72 1031.29 9.19 1030.07 9.19"/><polygon class="cls-108" points="694.05 9.19 885.03 324.47 285.66 166.23 581.07 9.19 578.8 9.19 283.95 165.92 282.73 166.57 886.04 325.84 887.32 326.18 695.29 9.19 694.05 9.19"/><polygon class="cls-108" points="986.92 9.19 988.25 91.99 440.43 146.07 592.96 9.19 591.36 9.19 438.49 146.37 437.27 147.47 988.84 93.01 989.34 92.96 988 9.19 986.92 9.19"/><polygon class="cls-108" points="1036.48 9.19 1035.76 48.58 973.82 9.19 971.82 9.19 1035.99 50 1036.79 50.51 1037.54 9.19 1036.48 9.19"/><path class="cls-108" d="M820.23,172.12l-1,.92L687.59,513.19,498.44,472.28,818.36,172.42l.08-.2h.36ZM686.84,511.94,817.47,174.72l-316.85,297Z" transform="translate(5.77 6.67)"/><polygon class="cls-108" points="1342.45 9.19 1471.93 144.53 598.66 9.19 591.66 9.19 1474.89 146.07 1343.93 9.19 1342.45 9.19"/><path class="cls-108" d="M1411,500.33l-.26,1-503.33-23-.14-.28L758.4,172.93l.92-.07.18.07Zm-502.92-23,500.2,22.82L760.38,174.57Z" transform="translate(5.77 6.67)"/><path class="cls-108" d="M566.08,42.42,565,43l59.86,122.66-.77.08L265.6,199.55l-.3-1,298.32-156-.2-.43.85.1.33-.18.11.24Zm57.16,122.27L564.09,43.45,268.24,198.21Z" transform="translate(5.77 6.67)"/><polygon class="cls-108" points="786.26 9.19 785.53 253.43 456.38 88.02 531.36 9.19 529.89 9.19 455.12 87.81 454.61 88.33 785.83 254.78 786.6 255.16 787.33 9.19 786.26 9.19"/><polygon class="cls-108" points="911.52 9.19 933.52 112.93 818.4 9.19 816.8 9.19 934.03 114.84 935.25 115.94 912.61 9.19 911.52 9.19"/><polygon class="cls-108" points="1743.73 9.19 1818.23 231.33 1117.33 9.19 1113.77 9.19 1818.91 232.67 1819.91 232.98 1744.86 9.19 1743.73 9.19"/><path class="cls-108" d="M1106,321.22l-1,.49L587.66,563.81l-.1-.71-77.74-522-.73-1.36,1.45.66Zm-517.47,241,515-241L511,41.82Z" transform="translate(5.77 6.67)"/><polygon class="cls-108" points="1258.22 9.19 1255.16 20.49 1249.72 9.19 1248.55 9.19 1254.81 22.25 1255.43 23.53 1259.33 9.19 1258.22 9.19"/><path class="cls-108" d="M1138.67,475l-.71.74L746.27,879.85l-.32-.74L535.68,382l-1.2-1.09,1.71.25Zm-392.05,403,389.84-402.27L537,382.35Z" transform="translate(5.77 6.67)"/><path class="cls-108" d="M992.51,292.47v.3l-3,295.32-1,.15L879.29,227.42l-1.15-.69.91-.13-.21-.7,1,.58h.28l.08.24Zm-4,292.13,2.89-291.52L880.64,228.19Z" transform="translate(5.77 6.67)"/><polygon class="cls-108" points="1621.83 9.19 531.21 726.37 763.02 183.48 1343.58 9.19 1339.84 9.19 762.47 182.53 762.12 182.68 762.09 182.95 529.53 727.57 528.83 729.22 1623.78 9.19 1621.83 9.19"/><polygon class="cls-108" points="1516.81 9.19 1327.33 315.12 1221.9 9.19 1220.79 9.19 1326.68 316.53 1327.04 317.59 1518.06 9.19 1516.81 9.19"/><polygon class="cls-108" points="1556.51 9.19 1383.88 103.17 1341.6 9.19 1340.42 9.19 1383.13 104.14 1383.37 104.67 1558.76 9.19 1556.51 9.19"/><path class="cls-108" d="M1492.46,159l-.68.75-714.88,788L735.42,52.28l.56-.16,0-.37ZM777.84,945.22,1490.3,159.78,736.51,52.91Z" transform="translate(5.77 6.67)"/><path class="cls-108" d="M980.74,403.43h0l20.52,443.84-.73-.24L662.79,730.23,979.84,403.08l.36.36Zm19.42,442.31-20.42-441-315,325Z" transform="translate(5.77 6.67)"/><polygon class="cls-108" points="602.45 9.19 1485.22 344.7 1227.66 473.76 588.58 9.19 586.76 9.19 1227.29 474.82 1227.54 475.01 1486.79 345.11 1487.88 344.57 605.47 9.19 602.45 9.19"/><path class="cls-108" d="M1331.43,54.87v.52l17.39,480.46-.76-.29L873.83,355.33l.85-.58L1330.74,54.86Zm16.24,479.4L1330.45,56.36,876.17,355.07Z" transform="translate(5.77 6.67)"/><polygon class="cls-108" points="1801.43 9.19 1478.75 447.02 1316.5 9.19 1315.36 9.19 1478.09 448.32 1478.43 449.24 1802.75 9.19 1801.43 9.19"/><polygon class="cls-108" points="1815.54 9.19 1814.78 13.82 1813.74 9.19 1812.66 9.19 1814.33 16.72 1815.39 16.69 1816.63 9.19 1815.54 9.19"/><path class="cls-108" d="M1327.7,278.41l-.23.39L1025.23,781.05l-1-.35,98.61-682Zm-302,499.8,300.64-499.58L1123.64,100.86Z" transform="translate(5.77 6.67)"/><path class="cls-108" d="M1514,144.73,1584.81,415l-.48.17L1241.46,526.41,1513,144.57l.28.21Zm69.49,269.56-70.23-268.17-269,378.28Z" transform="translate(5.77 6.67)"/><polygon class="cls-108" points="1738.91 9.19 1704.18 366.97 1257.25 397.72 1543.6 9.19 1542.26 9.19 1255.72 398.01 1255.02 398.94 1704.7 368.02 1705.15 367.98 1739.99 9.19 1738.91 9.19"/><polygon class="cls-108" points="1925.53 105.82 1639.03 168.63 1614.54 9.19 1613.47 9.19 1638.07 169.36 1638.16 169.92 1925.53 106.92 1925.53 105.82"/><path class="cls-108" d="M1581.08,426.26,1408.61,619.63l-.41-.45L1179.52,360l.42-.41.07-.47ZM1408.61,618,1579,427l-397.66-66.55Z" transform="translate(5.77 6.67)"/><path class="cls-108" d="M1174.5,212.45l.48.56L1540.6,627.34h-1.22l-609.84-7.8.48-.8Zm363.69,413.78-363.53-412L931.42,618.48Z" transform="translate(5.77 6.67)"/><polygon class="cls-108" points="1504.79 9.19 1800.52 529.67 875.26 374.8 1269.97 9.19 1268.4 9.19 873.75 374.75 872.94 375.49 1801.46 530.91 1802.56 531.1 1506.02 9.19 1504.79 9.19"/><path class="cls-108" d="M1908.86,379.49l-194.4,105-.2-.63L1612.17,150.66ZM1715.09,482.88l191.85-103.57L1614.19,153.59Z" transform="translate(5.77 6.67)"/><path class="cls-108" d="M1656.79,76.6l.34,1.1,124.09,404.94-.79-.05L1415.51,454.9l.48-.76L1656.08,77.79v-.06l.19-.21Zm123,404.86L1656.45,79.12,1417.32,454Z" transform="translate(5.77 6.67)"/><polygon class="cls-108" points="1925.53 559.08 1698.67 694.5 1660.07 9.19 1659.01 9.19 1697.65 695.44 1697.7 696.33 1925.53 560.32 1925.53 559.08"/><polygon class="cls-108" points="1813.12 9.19 1838.99 468.2 1551.95 246.85 1742.12 9.19 1740.76 9.19 1550.43 247.04 1839.26 469.77 1840.17 470.48 1814.2 9.19 1813.12 9.19"/><polygon class="cls-108" points="1925.53 145.26 1615.66 9.19 1612.99 9.19 1925.53 146.43 1925.53 145.26"/><path class="cls-108" d="M1657.43,715.14l.48.9-507,438L899.24,906.2l.39-.52.21-.08ZM1151,1152.61,1655.5,716.73,901,906.42Z" transform="translate(5.77 6.67)"/><path class="cls-108" d="M1556.59,569.44l-.23.51L1401.05,907.6l-1-.22-9-405.68h.4l.31-.52ZM1401.05,905l154.14-335-163.07-67.55Z" transform="translate(5.77 6.67)"/><path class="cls-108" d="M1555.15,320.82l.56.52v.23l10.72,482.71-.4.1L838.63,987.27l-.49-.92Zm10.2,482.63-10.67-480.7-714.28,663Z" transform="translate(5.77 6.67)"/><path class="cls-108" d="M1817.11,488.22l-.85.44L1410.7,697.26l.56-1.37,151.59-361.5-.16-.09.37-.43.21-.47.52.32ZM1412.82,694.93l402.1-206.8-251.14-153.2Z" transform="translate(5.77 6.67)"/><path class="cls-108" d="M1572.57,409l-99.91,238.27-.5-.19-82.77-34.28,182.27-204.36ZM1472.08,645.79l98.27-234.34L1391.2,612.3Z" transform="translate(5.77 6.67)"/><polygon class="cls-108" points="1925.53 947.22 1892.98 1059.25 1593.98 206.3 1925.53 364.07 1925.53 362.89 1592.13 204.24 1893.08 1062.73 1925.53 951.03 1925.53 947.22"/><polygon class="cls-108" points="1925.53 979.48 1589.35 774.4 1649.35 181.81 1925.53 969.69 1925.53 966.48 1649.57 179.19 1649.19 178.14 1648.54 179.21 1588.25 774.64 1588.21 774.98 1925.53 980.75 1925.53 979.48"/><polygon class="cls-108" points="1925.53 460.22 1465.28 435.79 1925.53 161.03 1925.53 159.78 1463.22 435.77 1461.71 436.68 1925.53 461.29 1925.53 460.22"/><polygon class="cls-108" points="1925.53 29.89 1875.29 20.99 1891.27 9.19 1889.48 9.19 1873.65 20.86 1872.65 21.62 1925.53 30.98 1925.53 29.89"/><path class="cls-108" d="M628.11,240.85a4.46,4.46,0,0,1,6.3-.24l0,0a4.52,4.52,0,0,1,.21,6.36,4.44,4.44,0,0,1-6.28.25l0,0A4.54,4.54,0,0,1,628.11,240.85Z" transform="translate(5.77 6.67)"/><path class="cls-108" d="M844.4,244.26a4.35,4.35,0,0,1,6.15-.23h0a4.41,4.41,0,0,1,.22,6.21,4.34,4.34,0,0,1-6.13.24l0,0A4.41,4.41,0,0,1,844.4,244.26Z" transform="translate(5.77 6.67)"/><path class="cls-108" d="M306.75,115a10.25,10.25,0,0,1,14.49-.63l.13.12a10.46,10.46,0,0,1,.5,14.73,10.3,10.3,0,0,1-14.56.58l-.07-.07A10.46,10.46,0,0,1,306.75,115Z" transform="translate(5.77 6.67)"/><path class="cls-108" d="M909.33,276.25a5.78,5.78,0,0,1,8.17-.34l.06.06a5.87,5.87,0,0,1,.28,8.27,5.79,5.79,0,0,1-8.18.33l0,0A5.89,5.89,0,0,1,909.33,276.25Z" transform="translate(5.77 6.67)"/><path class="cls-108" d="M605.91,549.16a14.06,14.06,0,0,1,19.89-.8l.12.11a14.32,14.32,0,0,1,.69,20.15,14.09,14.09,0,0,1-19.91.79l-.1-.1A14.32,14.32,0,0,1,605.91,549.16Z" transform="translate(5.77 6.67)"/><path class="cls-108" d="M308,116.09a8.66,8.66,0,0,1,12.23-.44h0a8.79,8.79,0,0,1,.42,12.37,8.63,8.63,0,0,1-12.21.49l-.07-.06A8.8,8.8,0,0,1,308,116.09Z" transform="translate(5.77 6.67)"/><path class="cls-108" d="M475.83,10a13,13,0,0,1,18.4-.72l.08.08A13.23,13.23,0,0,1,495,27.93a13,13,0,0,1-18.4.73l-.09-.08A13.24,13.24,0,0,1,475.83,10Z" transform="translate(5.77 6.67)"/><path class="cls-108" d="M760.55,476.55a6.42,6.42,0,0,1,9.08-.36l0,0a6.54,6.54,0,0,1,.31,9.19,6.43,6.43,0,0,1-9.09.34l0,0A6.53,6.53,0,0,1,760.55,476.55Z" transform="translate(5.77 6.67)"/><path class="cls-108" d="M480.45,14.34a6.7,6.7,0,0,1,9.48-.38l.05,0a6.83,6.83,0,0,1,.32,9.61,6.71,6.71,0,0,1-9.49.37l0,0A6.84,6.84,0,0,1,480.45,14.34Z" transform="translate(5.77 6.67)"/><path class="cls-108" d="M273.88,155.46a6.17,6.17,0,0,1,8.73-.34l.06,0A6.3,6.3,0,0,1,283,164a6.2,6.2,0,0,1-8.76.33l0,0A6.29,6.29,0,0,1,273.88,155.46Z" transform="translate(5.77 6.67)"/><path class="cls-108" d="M870,308.84a14.21,14.21,0,0,1,20.09-.8l.1.09a14.46,14.46,0,0,1,.71,20.34,14.24,14.24,0,0,1-20.11.79l-.09-.08A14.47,14.47,0,0,1,870,308.84Z" transform="translate(5.77 6.67)"/><path class="cls-108" d="M423.42,131a13.15,13.15,0,0,1,18.57-.75l.1.09a13.35,13.35,0,0,1,.65,18.81,13.13,13.13,0,0,1-18.55.76l-.12-.11A13.36,13.36,0,0,1,423.42,131Z" transform="translate(5.77 6.67)"/><path class="cls-108" d="M978,81.13a6.78,6.78,0,0,1,9.57-.4l.06.06a6.9,6.9,0,0,1,.33,9.7,6.78,6.78,0,0,1-9.58.38l0,0A6.9,6.9,0,0,1,978,81.13Z" transform="translate(5.77 6.67)"/><path class="cls-108" d="M1019.8,2.53a6.18,6.18,0,0,0,.36,8.62,6.08,6.08,0,0,0,8.59-.26l0,0a6.17,6.17,0,0,0,0-8.32Z" transform="translate(5.77 6.67)"/><path class="cls-108" d="M1025.71,38.38a6.52,6.52,0,0,1,9.21-.44l.1.09a6.65,6.65,0,0,1,.33,9.34,6.53,6.53,0,0,1-9.22.38l-.06,0A6.62,6.62,0,0,1,1025.71,38.38Z" transform="translate(5.77 6.67)"/><path class="cls-108" d="M812,166.28a9.27,9.27,0,0,1,13.1-.52l.07.07a9.41,9.41,0,0,1,.45,13.28,9.27,9.27,0,0,1-13.1.53l-.07-.07A9.41,9.41,0,0,1,812,166.28Z" transform="translate(5.77 6.67)"/><path class="cls-108" d="M494.31,467.06a7.13,7.13,0,0,1,10.07-.41l.05.05a7.27,7.27,0,0,1,.36,10.2,7.13,7.13,0,0,1-10.08.38l0,0A7.22,7.22,0,0,1,494.31,467.06Z" transform="translate(5.77 6.67)"/><path class="cls-108" d="M684.33,509.86a3.91,3.91,0,0,1,5.53-.22l0,0a4,4,0,0,1,.19,5.6,3.91,3.91,0,0,1-5.54.21h0A4,4,0,0,1,684.33,509.86Z" transform="translate(5.77 6.67)"/><path class="cls-108" d="M815.08,169.21a5.09,5.09,0,0,1,7.18-.29l0,0a5.13,5.13,0,0,1,.25,7.25h0a5.12,5.12,0,0,1-7.48-7Z" transform="translate(5.77 6.67)"/><path class="cls-108" d="M562.43,2.53a8.85,8.85,0,0,0,2.32,3.69,8.88,8.88,0,0,0,12.56-.36l.06-.07a8.9,8.9,0,0,0,1.92-3.26Z" transform="translate(5.77 6.67)"/><path class="cls-108" d="M1462.08,133.4a7.57,7.57,0,0,1,10.7-.42l0,.05a7.71,7.71,0,0,1,.38,10.83,7.58,7.58,0,0,1-10.7.43l-.06-.06A7.69,7.69,0,0,1,1462.08,133.4Z" transform="translate(5.77 6.67)"/><path class="cls-108" d="M755.14,169.53a5.61,5.61,0,0,1,7.92-.32l0,0a5.7,5.7,0,0,1,.28,8,5.61,5.61,0,0,1-7.92.31l0,0A5.69,5.69,0,0,1,755.14,169.53Z" transform="translate(5.77 6.67)"/><path class="cls-108" d="M1402.05,492.62a11.85,11.85,0,0,1,16.75-.69l.13.12a12.06,12.06,0,0,1,.6,17,11.86,11.86,0,0,1-16.77.67l-.08-.08A12.06,12.06,0,0,1,1402.05,492.62Z" transform="translate(5.77 6.67)"/><path class="cls-108" d="M903.25,473.65a6.1,6.1,0,0,1,8.63-.36l.06,0a6.23,6.23,0,0,1,.3,8.76,6.13,6.13,0,0,1-8.65.34l0,0A6.22,6.22,0,0,1,903.25,473.65Z" transform="translate(5.77 6.67)"/><path class="cls-108" d="M754.91,169.35a5.87,5.87,0,0,1,8.29-.33l0,0a6,6,0,0,1,.29,8.4,5.88,5.88,0,0,1-8.3.33l0,0A6,6,0,0,1,754.91,169.35Z" transform="translate(5.77 6.67)"/><path class="cls-108" d="M553.32,32.38a15,15,0,0,1,21.19-.85l.12.11a15.24,15.24,0,0,1,.73,21.44,15,15,0,0,1-21.2.84l-.1-.09A15.26,15.26,0,0,1,553.32,32.38Z" transform="translate(5.77 6.67)"/><path class="cls-108" d="M255.7,189.76a13.41,13.41,0,0,1,18.95-.75.38.38,0,0,1,.09.09,13.66,13.66,0,0,1,.67,19.18,13.42,13.42,0,0,1-19,.73l-.08-.07A13.64,13.64,0,0,1,255.7,189.76Z" transform="translate(5.77 6.67)"/><path class="cls-108" d="M614.68,156.36a12.78,12.78,0,0,1,18.05-.71l.08.08a13,13,0,0,1,.64,18.25,12.77,12.77,0,0,1-18,.73l-.11-.1A13,13,0,0,1,614.68,156.36Z" transform="translate(5.77 6.67)"/><path class="cls-108" d="M558.44,37.17a8,8,0,0,1,11.32-.44l0,.05a8.14,8.14,0,0,1,.4,11.46,8,8,0,0,1-11.32.44l0,0A8.14,8.14,0,0,1,558.44,37.17Z" transform="translate(5.77 6.67)"/><path class="cls-108" d="M445.6,77.63a5.62,5.62,0,0,1,7.93-.34l.07.07a5.71,5.71,0,0,1,.27,8,5.62,5.62,0,0,1-7.94.33l0,0A5.72,5.72,0,0,1,445.6,77.63Z" transform="translate(5.77 6.67)"/><path class="cls-108" d="M775.81,243.42a6.09,6.09,0,0,1,8.62-.36l.07.06a6.2,6.2,0,0,1,.29,8.73,6.09,6.09,0,0,1-8.63.33l0,0A6.2,6.2,0,0,1,775.81,243.42Z" transform="translate(5.77 6.67)"/><path class="cls-108" d="M923.49,103a7,7,0,0,1,9.86-.4l0,0a7.09,7.09,0,0,1,.33,10,7,7,0,0,1-9.86.39l0,0A7.09,7.09,0,0,1,923.49,103Z" transform="translate(5.77 6.67)"/><path class="cls-108" d="M1808.06,220.58a7.12,7.12,0,0,1,10.06-.4l.05,0a7.23,7.23,0,0,1,.35,10.17,7.14,7.14,0,0,1-10.08.39l0,0A7.23,7.23,0,0,1,1808.06,220.58Z" transform="translate(5.77 6.67)"/><path class="cls-108" d="M506.88,37.69a4.68,4.68,0,0,1,6.61-.27l0,0a4.77,4.77,0,0,1,.22,6.69,4.69,4.69,0,0,1-6.61.25l0,0A4.75,4.75,0,0,1,506.88,37.69Z" transform="translate(5.77 6.67)"/><path class="cls-108" d="M1093.33,310.52a15.5,15.5,0,0,1,21.91-.85l.1.09a15.77,15.77,0,0,1,.77,22.17,15.48,15.48,0,0,1-21.89.87l-.13-.11A15.76,15.76,0,0,1,1093.33,310.52Z" transform="translate(5.77 6.67)"/><path class="cls-108" d="M500.75,31.93a13,13,0,0,1,18.43-.71l.08.07a13.24,13.24,0,0,1,.64,18.63,13,13,0,0,1-18.4.73l-.1-.09A13.24,13.24,0,0,1,500.75,31.93Z" transform="translate(5.77 6.67)"/><path class="cls-108" d="M1255.12,2.53h-11.21a13.75,13.75,0,0,0-4.55,3.25,14.09,14.09,0,0,0,.68,19.81,13.86,13.86,0,0,0,19.58-.6l.09-.1A14.08,14.08,0,0,0,1259,5.1,13.9,13.9,0,0,0,1255.12,2.53Z" transform="translate(5.77 6.67)"/><path class="cls-108" d="M529.41,375.39a9.11,9.11,0,0,1,12.89-.49l0,0a9.25,9.25,0,0,1,.44,13,9.07,9.07,0,0,1-12.82.54l-.1-.1A9.24,9.24,0,0,1,529.41,375.39Z" transform="translate(5.77 6.67)"/><path class="cls-108" d="M1132.49,470.5a7,7,0,0,1,9.83-.35l0,0a7,7,0,0,1,.35,9.91,6.93,6.93,0,0,1-9.79.39l-.06-.05A7.06,7.06,0,0,1,1132.49,470.5Z" transform="translate(5.77 6.67)"/><path class="cls-108" d="M739.81,872.65a9,9,0,0,1,12.76-.5l.07.07a9.18,9.18,0,0,1,.44,12.91,9,9,0,0,1-12.76.51l-.06-.06A9.2,9.2,0,0,1,739.81,872.65Z" transform="translate(5.77 6.67)"/><path class="cls-108" d="M528.1,374.15a10.89,10.89,0,0,1,15.4-.6.27.27,0,0,1,.08.07,11.12,11.12,0,0,1,.54,15.58,10.92,10.92,0,0,1-15.42.62l-.07-.07A11.12,11.12,0,0,1,528.1,374.15Z" transform="translate(5.77 6.67)"/><path class="cls-108" d="M871.4,219.21a11.32,11.32,0,0,1,16-.61l.07.06a11.46,11.46,0,0,1,.55,16.15,11.29,11.29,0,0,1-16,.65l-.08-.08A11.51,11.51,0,0,1,871.4,219.21Z" transform="translate(5.77 6.67)"/><path class="cls-108" d="M984,285.25a10.87,10.87,0,0,1,15.35-.62l.1.09a11.05,11.05,0,0,1,.53,15.55,10.86,10.86,0,0,1-15.35.64.47.47,0,0,0-.1-.1A11.07,11.07,0,0,1,984,285.25Z" transform="translate(5.77 6.67)"/><path class="cls-108" d="M981.7,581.2a9.94,9.94,0,0,1,14-.58l.09.09a10.1,10.1,0,0,1,.5,14.24,10,10,0,0,1-14.09.56l-.06-.06A10.13,10.13,0,0,1,981.7,581.2Z" transform="translate(5.77 6.67)"/><path class="cls-108" d="M875.51,223a5.75,5.75,0,0,1,8.13-.32l0,0A5.85,5.85,0,0,1,884,231a5.76,5.76,0,0,1-8.15.3l0,0A5.84,5.84,0,0,1,875.51,223Z" transform="translate(5.77 6.67)"/><path class="cls-108" d="M751.07,171a7.86,7.86,0,0,1,11.1-.49l.09.09a8,8,0,0,1,.4,11.23,7.89,7.89,0,0,1-11.14.42l0,0A8,8,0,0,1,751.07,171Z" transform="translate(5.77 6.67)"/><path class="cls-108" d="M515.2,712.65a12.31,12.31,0,0,1,17.39-.69l.09.08a12.51,12.51,0,0,1,.6,17.6,12.3,12.3,0,0,1-17.38.69l-.09-.08A12.52,12.52,0,0,1,515.2,712.65Z" transform="translate(5.77 6.67)"/><path class="cls-108" d="M751,170.91a8,8,0,0,1,11.32-.44l0,0a8.12,8.12,0,0,1,.39,11.45,8,8,0,0,1-11.3.44l-.06-.05A8.15,8.15,0,0,1,751,170.91Z" transform="translate(5.77 6.67)"/><path class="cls-108" d="M1314,302.74a10,10,0,0,1,14.2-.56l.06.05a10.26,10.26,0,0,1,.5,14.39,10.05,10.05,0,0,1-14.21.56l-.08-.07A10.22,10.22,0,0,1,1314,302.74Z" transform="translate(5.77 6.67)"/><path class="cls-108" d="M1374.31,93.92a4.81,4.81,0,0,1,6.79-.29l.05.05a4.9,4.9,0,0,1,.24,6.9,4.83,4.83,0,0,1-6.82.27l0,0A4.88,4.88,0,0,1,1374.31,93.92Z" transform="translate(5.77 6.67)"/><path class="cls-108" d="M1774.55,2.53a5.34,5.34,0,0,0,1.71,3.61,5.33,5.33,0,0,0,7.54-.23l0,0a5.45,5.45,0,0,0,1.4-3.35Z" transform="translate(5.77 6.67)"/><path class="cls-108" d="M729.21,45.94a9.2,9.2,0,0,1,13-.52l.07.06a9.36,9.36,0,0,1,.44,13.15,9.19,9.19,0,0,1-13,.52l-.07-.07A9.34,9.34,0,0,1,729.21,45.94Z" transform="translate(5.77 6.67)"/><path class="cls-108" d="M1486,154.31a7.38,7.38,0,0,1,10.42-.42l.06.05a7.52,7.52,0,0,1,.37,10.57,7.4,7.4,0,0,1-10.45.42l0-.05A7.51,7.51,0,0,1,1486,154.31Z" transform="translate(5.77 6.67)"/><path class="cls-108" d="M773.52,942.87a5.23,5.23,0,0,1,7.4-.3l0,0a5.33,5.33,0,0,1,.26,7.5,5.24,5.24,0,0,1-7.41.29l0,0A5.34,5.34,0,0,1,773.52,942.87Z" transform="translate(5.77 6.67)"/><path class="cls-108" d="M728.2,45a10.55,10.55,0,0,1,14.92-.57l.06.05a10.73,10.73,0,0,1,.52,15.09,10.56,10.56,0,0,1-14.91.59l-.08-.08A10.73,10.73,0,0,1,728.2,45Z" transform="translate(5.77 6.67)"/><path class="cls-108" d="M975.17,398.68a6.92,6.92,0,0,1,9.77-.38l0,0a7,7,0,0,1,.35,9.88,6.91,6.91,0,0,1-9.77.39l0-.05A7,7,0,0,1,975.17,398.68Z" transform="translate(5.77 6.67)"/><path class="cls-108" d="M659.73,726.2a5.5,5.5,0,0,1,7.78-.3l0,0a5.59,5.59,0,0,1,.27,7.86,5.5,5.5,0,0,1-7.77.3l0,0A5.59,5.59,0,0,1,659.73,726.2Z" transform="translate(5.77 6.67)"/><path class="cls-108" d="M990.29,836.71a14.2,14.2,0,0,1,20.05-.84l.13.13a14.44,14.44,0,0,1,.7,20.32,14.21,14.21,0,0,1-20.08.81l-.1-.1A14.44,14.44,0,0,1,990.29,836.71Z" transform="translate(5.77 6.67)"/><path class="cls-108" d="M974.38,398a7.93,7.93,0,0,1,11.21-.45l.07.06A8.08,8.08,0,0,1,986,409a7.93,7.93,0,0,1-11.21.43l-.06,0A8.08,8.08,0,0,1,974.38,398Z" transform="translate(5.77 6.67)"/><path class="cls-108" d="M1474.18,331.77a9,9,0,0,1,12.7-.51l.07.06a9.15,9.15,0,0,1,.43,12.83,9,9,0,0,1-12.68.5l-.06-.06A9.11,9.11,0,0,1,1474.18,331.77Z" transform="translate(5.77 6.67)"/><path class="cls-108" d="M1212.76,459.2a12.33,12.33,0,0,1,17.44-.69l.09.08a12.54,12.54,0,0,1,.61,17.64,12.33,12.33,0,0,1-17.42.71l-.1-.09A12.56,12.56,0,0,1,1212.76,459.2Z" transform="translate(5.77 6.67)"/><path class="cls-108" d="M1324.09,49a9.31,9.31,0,0,1,13.16-.49l0,0a9.4,9.4,0,0,1,.45,13.28,9.29,9.29,0,0,1-13.13.52l-.06-.06A9.46,9.46,0,0,1,1324.09,49Z" transform="translate(5.77 6.67)"/><path class="cls-108" d="M868.06,348.69a9.41,9.41,0,0,1,13.29-.58l.11.11a9.59,9.59,0,0,1,.47,13.5,9.41,9.41,0,0,1-13.29.56l-.11-.1A9.57,9.57,0,0,1,868.06,348.69Z" transform="translate(5.77 6.67)"/><path class="cls-108" d="M1340.74,528a10.19,10.19,0,0,1,14.4-.57l.07.07a10.34,10.34,0,0,1,.5,14.53,10.18,10.18,0,0,1-14.39.59l-.09-.08A10.38,10.38,0,0,1,1340.74,528Z" transform="translate(5.77 6.67)"/><path class="cls-108" d="M1324.51,49.37a8.74,8.74,0,0,1,12.36-.48l.05,0a8.89,8.89,0,0,1,.44,12.51,8.75,8.75,0,0,1-12.36.48l-.06-.06A8.89,8.89,0,0,1,1324.51,49.37Z" transform="translate(5.77 6.67)"/><path class="cls-108" d="M1469.38,438.24A4.69,4.69,0,0,1,1476,438l0,0a4.77,4.77,0,0,1,.23,6.68,4.67,4.67,0,0,1-6.6.27l0,0A4.74,4.74,0,0,1,1469.38,438.24Z" transform="translate(5.77 6.67)"/><path class="cls-108" d="M1811.46,2.53h-4.72a7.92,7.92,0,0,0-3.34,2.07,7.86,7.86,0,0,0,.4,11,7.7,7.7,0,0,0,10.88-.3l.07-.08a7.84,7.84,0,0,0-.38-11A7.58,7.58,0,0,0,1811.46,2.53Z" transform="translate(5.77 6.67)"/><path class="cls-108" d="M1117.53,94.46a7.77,7.77,0,0,1,11-.44l.06.06a7.9,7.9,0,0,1,.38,11.11,7.79,7.79,0,0,1-11,.44l0,0A7.91,7.91,0,0,1,1117.53,94.46Z" transform="translate(5.77 6.67)"/><path class="cls-108" d="M1324.55,276.21a3.34,3.34,0,0,1,4.71-.2l0,0a3.43,3.43,0,0,1,.17,4.78,3.32,3.32,0,0,1-4.7.21l0,0A3.42,3.42,0,0,1,1324.55,276.21Z" transform="translate(5.77 6.67)"/><path class="cls-108" d="M1018.19,774.59a9,9,0,0,1,12.67-.51l.06,0a9.12,9.12,0,0,1,.44,12.83,9,9,0,0,1-12.66.51l-.06-.06A9.12,9.12,0,0,1,1018.19,774.59Z" transform="translate(5.77 6.67)"/><path class="cls-108" d="M1115.88,92.88a10,10,0,0,1,14.17-.56l.08.06a10.19,10.19,0,0,1,.48,14.33,10,10,0,0,1-14.17.57l-.07-.07A10.2,10.2,0,0,1,1115.88,92.88Z" transform="translate(5.77 6.67)"/><path class="cls-108" d="M1507.24,139a8.49,8.49,0,0,1,12-.45l0,0a8.61,8.61,0,0,1,.41,12.12,8.47,8.47,0,0,1-12,.48l-.07-.06A8.62,8.62,0,0,1,1507.24,139Z" transform="translate(5.77 6.67)"/><path class="cls-108" d="M1236.5,519.41a8.63,8.63,0,0,1,12.18-.47l.06,0a8.77,8.77,0,0,1,.43,12.34,8.63,8.63,0,0,1-12.19.49l-.06-.06A8.77,8.77,0,0,1,1236.5,519.41Z" transform="translate(5.77 6.67)"/><path class="cls-108" d="M1579.22,410a6.67,6.67,0,0,1,9.42-.39l.06.06a6.77,6.77,0,0,1,.31,9.53,6.66,6.66,0,0,1-9.41.4l0-.05A6.77,6.77,0,0,1,1579.22,410Z" transform="translate(5.77 6.67)"/><path class="cls-108" d="M1503.05,135.06a14.19,14.19,0,0,1,20.06-.79l.1.09a14.43,14.43,0,0,1,.68,20.3,14.18,14.18,0,0,1-20,.82l-.12-.12A14.41,14.41,0,0,1,1503.05,135.06Z" transform="translate(5.77 6.67)"/><path class="cls-108" d="M1244.59,386.24a7.86,7.86,0,0,1,11.1-.45l.07.06a8,8,0,0,1,.39,11.24,7.87,7.87,0,0,1-11.12.44l0,0A8,8,0,0,1,1244.59,386.24Z" transform="translate(5.77 6.67)"/><path class="cls-108" d="M1695.87,358a4.14,4.14,0,1,1,.23,5.91l0,0A4.19,4.19,0,0,1,1695.87,358Z" transform="translate(5.77 6.67)"/><path class="cls-108" d="M1624.75,155a11,11,0,0,1,15.52-.61l.08.07a11.16,11.16,0,0,1,.53,15.7,11,11,0,0,1-15.5.63l-.09-.08A11.18,11.18,0,0,1,1624.75,155Z" transform="translate(5.77 6.67)"/><path class="cls-108" d="M1173.21,353.36a9.13,9.13,0,0,1,12.91-.5l0,0a9.28,9.28,0,0,1,.46,13.05,9.12,9.12,0,0,1-12.89.51l-.07-.06A9.27,9.27,0,0,1,1173.21,353.36Z" transform="translate(5.77 6.67)"/><path class="cls-108" d="M1403.43,614a7,7,0,0,1,9.94-.39l.05,0a7.14,7.14,0,0,1,.38,10.1h0a7.06,7.06,0,0,1-10,.38l0,0A7.19,7.19,0,0,1,1403.43,614Z" transform="translate(5.77 6.67)"/><path class="cls-108" d="M1175.16,355.19a6.48,6.48,0,0,1,9.15-.38l0,0a6.6,6.6,0,0,1,.33,9.27,6.48,6.48,0,0,1-9.16.36l0,0A6.57,6.57,0,0,1,1175.16,355.19Z" transform="translate(5.77 6.67)"/><path class="cls-108" d="M1168.91,208a7.69,7.69,0,0,1,10.87-.48l.11.1a7.86,7.86,0,0,1,.37,11.06,7.69,7.69,0,0,1-10.87.48l-.1-.1A7.86,7.86,0,0,1,1168.91,208Z" transform="translate(5.77 6.67)"/><path class="cls-108" d="M918.87,608.1a15.8,15.8,0,0,1,22.34-.88l.11.1a16.08,16.08,0,0,1,.78,22.6,15.8,15.8,0,0,1-22.33.88l-.12-.11A16.06,16.06,0,0,1,918.87,608.1Z" transform="translate(5.77 6.67)"/><path class="cls-108" d="M1532.65,620.48a9.14,9.14,0,0,1,12.93-.52l.07.06a9.3,9.3,0,0,1,.46,13.09,9.16,9.16,0,0,1-12.95.51l-.07,0A9.31,9.31,0,0,1,1532.65,620.48Z" transform="translate(5.77 6.67)"/><path class="cls-108" d="M1170.31,209.34a5.81,5.81,0,0,1,8.19-.34l.06.06a5.9,5.9,0,0,1,.29,8.32,5.84,5.84,0,0,1-8.24.32l0,0A5.91,5.91,0,0,1,1170.31,209.34Z" transform="translate(5.77 6.67)"/><path class="cls-108" d="M1786.82,515.3a12.16,12.16,0,0,1,17.2-.71l.11.1a12.39,12.39,0,0,1,.61,17.44,12.21,12.21,0,0,1-17.26.68l-.07-.07A12.4,12.4,0,0,1,1786.82,515.3Z" transform="translate(5.77 6.67)"/><path class="cls-108" d="M1899.61,371.6a11.32,11.32,0,0,1,16-.62l.07.07a11.49,11.49,0,0,1,.56,16.15,11.31,11.31,0,0,1-16,.64l-.08-.08A11.49,11.49,0,0,1,1899.61,371.6Z" transform="translate(5.77 6.67)"/><path class="cls-108" d="M1702.67,472.27a16.48,16.48,0,0,1,23.29-.91l.11.1a16.76,16.76,0,0,1,.85,23.57,16.48,16.48,0,0,1-23.28.93l-.13-.12A16.77,16.77,0,0,1,1702.67,472.27Z" transform="translate(5.77 6.67)"/><path class="cls-108" d="M1646.58,68.41a13.68,13.68,0,0,1,19.33-.77l.1.09a13.92,13.92,0,0,1,.67,19.56,13.7,13.7,0,0,1-19.34.77l-.09-.09A13.89,13.89,0,0,1,1646.58,68.41Z" transform="translate(5.77 6.67)"/><path class="cls-108" d="M1409.82,448.25a9,9,0,0,1,12.66-.49l0,.05a9.11,9.11,0,0,1,.44,12.83,9,9,0,0,1-12.64.5l-.07-.07A9.07,9.07,0,0,1,1409.82,448.25Z" transform="translate(5.77 6.67)"/><path class="cls-108" d="M1774.51,476.46A8.12,8.12,0,0,1,1786,476l0,.05a8.27,8.27,0,0,1,.39,11.6,8.12,8.12,0,0,1-11.46.44l0-.05A8.26,8.26,0,0,1,1774.51,476.46Z" transform="translate(5.77 6.67)"/><path class="cls-108" d="M1645.56,67.47a15,15,0,0,1,21.27-.84l.1.09a15.32,15.32,0,0,1,.75,21.53,15.06,15.06,0,0,1-21.29.83l-.09-.08A15.31,15.31,0,0,1,1645.56,67.47Z" transform="translate(5.77 6.67)"/><path class="cls-108" d="M1688.14,684.73a5.83,5.83,0,0,1,8.24-.31l0,0a5.93,5.93,0,0,1,.29,8.33,5.82,5.82,0,0,1-8.24.33l0,0A5.92,5.92,0,0,1,1688.14,684.73Z" transform="translate(5.77 6.67)"/><path class="cls-108" d="M1538.58,233.83a9.31,9.31,0,0,1,13.14-.53l.07.07a9.45,9.45,0,0,1,.47,13.31,9.31,9.31,0,0,1-13.15.54l-.07-.07A9.46,9.46,0,0,1,1538.58,233.83Z" transform="translate(5.77 6.67)"/><path class="cls-108" d="M1830.56,459.61a4.43,4.43,0,0,1,6.26-.25l0,0a4.47,4.47,0,0,1,.21,6.33,4.42,4.42,0,0,1-6.25.26l0,0A4.5,4.5,0,0,1,1830.56,459.61Z" transform="translate(5.77 6.67)"/><path class="cls-108" d="M894.44,900.92a7.52,7.52,0,0,1,10.63-.42l.06.06a7.69,7.69,0,0,1,.37,10.76,7.53,7.53,0,0,1-10.64.43l-.06,0A7.69,7.69,0,0,1,894.44,900.92Z" transform="translate(5.77 6.67)"/><path class="cls-108" d="M1653.25,711.61a5.87,5.87,0,0,1,8.3-.32l0,0a6,6,0,0,1,.29,8.38,5.86,5.86,0,0,1-8.28.33l0,0A6,6,0,0,1,1653.25,711.61Z" transform="translate(5.77 6.67)"/><path class="cls-108" d="M1140.87,1143.84a13.76,13.76,0,0,1,19.43-.76l.09.09a14,14,0,0,1,.67,19.66,13.74,13.74,0,0,1-19.43.76l-.1-.09A14,14,0,0,1,1140.87,1143.84Z" transform="translate(5.77 6.67)"/><path class="cls-108" d="M893,899.62a9.45,9.45,0,0,1,13.36-.54l.08.08a9.6,9.6,0,0,1,.46,13.52,9.45,9.45,0,0,1-13.36.53l-.07-.06A9.62,9.62,0,0,1,893,899.62Z" transform="translate(5.77 6.67)"/><path class="cls-108" d="M1548.39,562.65a10.27,10.27,0,0,1,14.5-.54l0,0a10.43,10.43,0,0,1,.51,14.65,10.27,10.27,0,0,1-14.5.54l0,0A10.43,10.43,0,0,1,1548.39,562.65Z" transform="translate(5.77 6.67)"/><path class="cls-108" d="M1397.55,904.5a4.13,4.13,0,0,1,5.83-.22l0,0a4.18,4.18,0,0,1,.21,5.9,4.14,4.14,0,0,1-5.85.23l0,0A4.21,4.21,0,0,1,1397.55,904.5Z" transform="translate(5.77 6.67)"/><path class="cls-108" d="M831.42,980.1a9.61,9.61,0,0,1,13.59-.56l.09.08a9.81,9.81,0,0,1,.47,13.79,9.65,9.65,0,0,1-13.62.52l-.06-.06A9.8,9.8,0,0,1,831.42,980.1Z" transform="translate(5.77 6.67)"/><path class="cls-108" d="M1558.15,796.59a10.55,10.55,0,0,1,14.91-.58l.06.06a10.72,10.72,0,0,1,.5,15.07,10.52,10.52,0,0,1-14.86.61l-.09-.09A10.71,10.71,0,0,1,1558.15,796.59Z" transform="translate(5.77 6.67)"/><path class="cls-108" d="M1556.89,327.88a9,9,0,0,1,12.75-.51l.08.07a9.16,9.16,0,0,1,.43,12.91,9,9,0,0,1-12.75.52l-.07-.08A9.17,9.17,0,0,1,1556.89,327.88Z" transform="translate(5.77 6.67)"/><path class="cls-108" d="M1809.76,482.29a8.55,8.55,0,0,1,12.08-.43l0,0a8.64,8.64,0,0,1,.41,12.18,8.54,8.54,0,0,1-12.08.43h0A8.69,8.69,0,0,1,1809.76,482.29Z" transform="translate(5.77 6.67)"/><path class="cls-108" d="M1401.83,686.77a13.48,13.48,0,0,1,19.05-.76l.09.08a13.68,13.68,0,0,1,.68,19.3,13.5,13.5,0,0,1-19.09.72l-.06-.05A13.72,13.72,0,0,1,1401.83,686.77Z" transform="translate(5.77 6.67)"/><path class="cls-108" d="M1463.74,638.42a11.74,11.74,0,0,1,16.58-.67l.1.09a12,12,0,0,1,.58,16.79,11.73,11.73,0,0,1-16.59.67l-.09-.08A12,12,0,0,1,1463.74,638.42Z" transform="translate(5.77 6.67)"/><path class="cls-108" d="M1583.46,195a5.21,5.21,0,0,1,7.36-.3l0,.05a5.27,5.27,0,0,1-7.14,7.74l0,0A5.31,5.31,0,0,1,1583.46,195Z" transform="translate(5.77 6.67)"/><path class="cls-108" d="M1882.14,1049.53a7,7,0,0,1,9.86-.38l0,0a7.08,7.08,0,0,1,.35,10,7,7,0,0,1-9.87.39l0,0A7.11,7.11,0,0,1,1882.14,1049.53Z" transform="translate(5.77 6.67)"/><path class="cls-108" d="M1582.66,194.25a6.31,6.31,0,0,1,8.92-.38l.07.06a6.45,6.45,0,0,1,.3,9,6.34,6.34,0,0,1-9,.33v0A6.41,6.41,0,0,1,1582.66,194.25Z" transform="translate(5.77 6.67)"/><path class="cls-108" d="M1578.68,764a5.9,5.9,0,0,1,8.33-.33l0,0a6,6,0,0,1,.29,8.44,5.89,5.89,0,0,1-8.32.35l-.06-.06A6,6,0,0,1,1578.68,764Z" transform="translate(5.77 6.67)"/><path class="cls-108" d="M1919.77,965.36a12.58,12.58,0,0,0-3.15,20.57,12.38,12.38,0,0,0,3.15,2.15Z" transform="translate(5.77 6.67)"/><path class="cls-108" d="M1454,426.09a5,5,0,0,1,7.09-.28l0,0a5.13,5.13,0,0,1,.25,7.19,5,5,0,0,1-7.1.28l0,0A5.12,5.12,0,0,1,1454,426.09Z" transform="translate(5.77 6.67)"/><path class="cls-108" d="M1865.3,11.92a3.94,3.94,0,0,1,5.58-.22l0,0a4,4,0,0,1,.2,5.63,3.92,3.92,0,0,1-5.55.24l0,0a4,4,0,0,1-.21-5.63Z" transform="translate(5.77 6.67)"/></g></g></svg>