<svg id="Layer_1" data-name="Layer 1" xmlns="http://www.w3.org/2000/svg" viewBox="0 0 577.3 153.01"><defs><style>.cls-1{fill:#062326;}.cls-2{fill:#23bfd4;}</style></defs><title>LOGO</title><path class="cls-1" d="M53,73.82q-5-2.66-8.53-4.38a16.91,16.91,0,0,0-7.42-1.71,10.22,10.22,0,0,0-7.21,2.65A8.69,8.69,0,0,0,27,77a6.81,6.81,0,0,0,2.66,5.71,25.45,25.45,0,0,0,6.65,3.55q4,1.48,8.7,2.88A34.85,34.85,0,0,1,53.68,93a21.82,21.82,0,0,1,6.65,6.54q2.66,4,2.65,10.81a25.44,25.44,0,0,1-2,10.47,22.43,22.43,0,0,1-5.59,7.75A24.36,24.36,0,0,1,47,133.43a30.74,30.74,0,0,1-10.2,1.67,35,35,0,0,1-12.46-2.33,70.37,70.37,0,0,1-12.91-6.65L17,113.05c1.4,1,2.88,2,4.43,3s3.09,2,4.6,2.82A31.81,31.81,0,0,0,30.57,121a12.87,12.87,0,0,0,4.38.83,16.19,16.19,0,0,0,5.71-.89,11.16,11.16,0,0,0,3.88-2.32,8.88,8.88,0,0,0,2.16-3.22,10.07,10.07,0,0,0,.66-3.54q0-4.55-2.66-7a21.6,21.6,0,0,0-6.65-4,84.27,84.27,0,0,0-8.7-2.93,35.93,35.93,0,0,1-8.69-3.72A20.92,20.92,0,0,1,14,87.89Q11.34,84,11.35,77.25a20.39,20.39,0,0,1,2-8.92,23.56,23.56,0,0,1,5.38-7.25,24.78,24.78,0,0,1,8-4.88,27,27,0,0,1,9.8-1.77q11,0,22.27,7Z" transform="translate(-11.35 -11.5)"/><path class="cls-1" d="M154.68,110.61a40.54,40.54,0,0,1-9,12.8A41.36,41.36,0,0,1,132.29,132a45.67,45.67,0,0,1-33.13,0,40.51,40.51,0,0,1-22.27-21.38,39.9,39.9,0,0,1,0-31.64,40.11,40.11,0,0,1,8.92-12.8,42.22,42.22,0,0,1,13.35-8.58,45,45,0,0,1,33.13,0,42.73,42.73,0,0,1,13.41,8.58,39.66,39.66,0,0,1,9,12.8,39.9,39.9,0,0,1,0,31.64ZM140.61,84.07a26.21,26.21,0,0,0-14.24-14.29,28.07,28.07,0,0,0-21.06,0,25.61,25.61,0,0,0-8.47,5.7,27.54,27.54,0,0,0,0,38.56,25.78,25.78,0,0,0,8.47,5.71,28.07,28.07,0,0,0,21.06,0,26.29,26.29,0,0,0,14.24-14.29,29.06,29.06,0,0,0,0-21.39Z" transform="translate(-11.35 -11.5)"/><path class="cls-1" d="M236.62,74.15a90.2,90.2,0,0,0-12.52-5.1,41.29,41.29,0,0,0-12.41-1.88,25.92,25.92,0,0,0-10.31,2,24.86,24.86,0,0,0-8.25,5.71,26.78,26.78,0,0,0-5.49,8.64,30.63,30.63,0,0,0,0,21.72,24.57,24.57,0,0,0,14,14.07,28.55,28.55,0,0,0,10.8,2,41.82,41.82,0,0,0,5.27-.34,44.9,44.9,0,0,0,5.87-1.16,65.17,65.17,0,0,0,6.81-2.22,85.65,85.65,0,0,0,8.09-3.6l4.77,12.86a63,63,0,0,1-16.46,6.2,70.82,70.82,0,0,1-14.24,1.55,46,46,0,0,1-16.95-3,40.49,40.49,0,0,1-13.41-8.48,39.13,39.13,0,0,1-12.07-28.7,38.27,38.27,0,0,1,3.49-16.51,40.2,40.2,0,0,1,9.3-12.74,42.38,42.38,0,0,1,13.36-8.26A43.06,43.06,0,0,1,212,54a67.08,67.08,0,0,1,14.18,1.6,82.64,82.64,0,0,1,16.63,5.82Z" transform="translate(-11.35 -11.5)"/><path class="cls-1" d="M270.64,133.77H255.57V57.09l15.07-5.65Z" transform="translate(-11.35 -11.5)"/><path class="cls-1" d="M366.43,110.61a40.54,40.54,0,0,1-9,12.8,41.42,41.42,0,0,1-13.4,8.58,45.7,45.7,0,0,1-33.14,0,40.51,40.51,0,0,1-22.27-21.38,39.9,39.9,0,0,1,0-31.64,40.11,40.11,0,0,1,8.92-12.8,42.22,42.22,0,0,1,13.35-8.58,43.88,43.88,0,0,1,46.54,8.58,39.66,39.66,0,0,1,9,12.8,39.9,39.9,0,0,1,0,31.64ZM352.36,84.07a26.21,26.21,0,0,0-14.24-14.29,28.07,28.07,0,0,0-21.06,0,25.61,25.61,0,0,0-8.47,5.7,27.45,27.45,0,0,0-5.71,8.59,28.28,28.28,0,0,0,0,21.39,27.41,27.41,0,0,0,5.71,8.58,25.78,25.78,0,0,0,8.47,5.71,28.07,28.07,0,0,0,21.06,0,26.29,26.29,0,0,0,14.24-14.29,28.92,28.92,0,0,0,0-21.39Z" transform="translate(-11.35 -11.5)"/><path class="cls-2" d="M407.15,55.32a42.33,42.33,0,0,1,13.13,1.77,24.21,24.21,0,0,1,8.7,4.76,18,18,0,0,1,4.82,6.87,22,22,0,0,1,1.49,8q0,13.86-12.29,19.39l23.71,33.8-12.19,7.64-25.38-37.45h-10V134h-15V55.32Zm-8,32.13h7q7,0,10.36-2.6a8.64,8.64,0,0,0,3.38-7.26,8.4,8.4,0,0,0-3.32-6.87q-3.33-2.67-10.64-2.66h-6.76Z" transform="translate(-11.35 -11.5)"/><path class="cls-2" d="M498.9,68.17H469.42V88h29.37v12.64H469.42v20.49h31.14l4.21,12.64H454.35V55.32h50.2Z" transform="translate(-11.35 -11.5)"/><path class="cls-2" d="M545.44,55.32q12.63,0,20.94,3.6a37,37,0,0,1,13.3,9.25,32.51,32.51,0,0,1,7,12.52,46,46,0,0,1-.17,27.31,35.12,35.12,0,0,1-19.89,22.17q-8,3.59-19.61,3.6H515.85V55.32Zm-14.52,65.81h15.74a29.14,29.14,0,0,0,10.13-1.77,24.38,24.38,0,0,0,14.3-13.68A29.48,29.48,0,0,0,573.25,94a27.21,27.21,0,0,0-2-10.53,23,23,0,0,0-5.66-8.14,26,26,0,0,0-8.69-5.27,31.8,31.8,0,0,0-11.14-1.88H530.92Z" transform="translate(-11.35 -11.5)"/><path class="cls-1" d="M393.34,152.25q4.08,0,4.08,2.78v1.15a1.88,1.88,0,0,1-.49,1.32,3,3,0,0,1-1.49.81q2.13.49,2.13,2.22v1.32q0,2.66-4.11,2.65h-9.07V152.25Zm-7,11h6.85c1.68,0,2.53-.54,2.53-1.6v-1.29c0-1-.9-1.51-2.71-1.51H387.3v-1.13H393q2.61,0,2.61-1.41v-1.07c0-1.16-.85-1.73-2.53-1.73h-6.75Z" transform="translate(-11.35 -11.5)"/><path class="cls-1" d="M408,155.74q4.08,0,4.08,2.8v3.16q0,2.81-4.08,2.8h-4.61c-2.33,0-3.49-.77-3.49-2.31v-.69c0-1.3,1.11-1.95,3.31-1.95h6v1h-5.56c-1.36,0-2,.39-2,1.16v.4c0,.9.68,1.35,2.05,1.35h4c1.7,0,2.55-.6,2.55-1.78v-3c0-1.15-.82-1.73-2.48-1.73h-7.47v-1.19Z" transform="translate(-11.35 -11.5)"/><path class="cls-1" d="M423.39,155.74q4.08,0,4.08,2.8v6h-1.83v-5.75c0-1.19-.87-1.78-2.6-1.78h-6.22v7.53H415v-8.76Z" transform="translate(-11.35 -11.5)"/><path class="cls-1" d="M440.28,155.74V157h-5.49c-1.74,0-2.6.59-2.6,1.78v2.75c0,1.2.86,1.8,2.6,1.8h5.49v1.2h-5.84q-4.08,0-4.08-2.8v-3.16q0-2.81,4.08-2.8Z" transform="translate(-11.35 -11.5)"/><path class="cls-1" d="M451.38,155.74q4.1,0,4.09,2.8v3.16q0,2.81-4.09,2.8H447q-4.09,0-4.09-2.8v-3.16q0-2.81,4.09-2.8Zm-6.69,5.76q0,1.8,2.61,1.8H451q2.61,0,2.61-1.8v-2.75c0-1.19-.87-1.78-2.61-1.78H447.3c-1.74,0-2.61.59-2.61,1.78Z" transform="translate(-11.35 -11.5)"/><path class="cls-1" d="M475.75,152.25v1.26h-9.48v4.16h9.33v1.21h-9.33v4.37h9.58v1.25H464.37V152.25Z" transform="translate(-11.35 -11.5)"/><path class="cls-1" d="M488.9,155.74v1.06h-7.41c-1.12,0-1.68.34-1.68,1v.69c0,.63.51.95,1.55.95h5.26c1.91,0,2.86.6,2.86,1.8v1.28c0,1.3-1,1.94-3.08,1.94h-8.25v-1.05h7.77c1.19,0,1.78-.35,1.78-1v-1c0-.63-.51-.95-1.53-.95h-5.26q-2.88,0-2.88-1.8v-1c0-1.29,1-1.93,3-1.93Z" transform="translate(-11.35 -11.5)"/><path class="cls-1" d="M495.47,152.89v2.85h2.83v1.09h-2.83v7.67h-1.83v-7.67h-2.46v-1.09h2.46v-2.85Z" transform="translate(-11.35 -11.5)"/><path class="cls-1" d="M502.34,155.76v5.74q0,1.8,2.58,1.8h3.58q2.61,0,2.61-1.8v-5.74h1.81v5.94c0,1.87-1.37,2.8-4.09,2.8h-4.24q-4.08,0-4.08-2.8v-5.94Z" transform="translate(-11.35 -11.5)"/><path class="cls-1" d="M528.28,152.13v9.57q0,2.81-4.09,2.8h-4.31q-4.08,0-4.08-2.8v-3.16q0-2.81,4.08-2.8h5.57V157h-5.22c-1.73,0-2.6.59-2.6,1.78v2.75c0,1.2.87,1.8,2.6,1.8h3.61q2.61,0,2.61-1.8v-9.37Z" transform="translate(-11.35 -11.5)"/><path class="cls-1" d="M533.17,152.13v2h-1.83v-2Zm0,3.69v8.68h-1.83v-8.68Z" transform="translate(-11.35 -11.5)"/><path class="cls-1" d="M544.12,155.74q4.08,0,4.08,2.8v3.16q0,2.81-4.08,2.8h-4.61c-2.33,0-3.49-.77-3.49-2.31v-.69c0-1.3,1.11-1.95,3.31-1.95h6v1h-5.56c-1.36,0-2,.39-2,1.16v.4c0,.9.68,1.35,2.05,1.35h4c1.7,0,2.55-.6,2.55-1.78v-3c0-1.15-.82-1.73-2.48-1.73h-7.47v-1.19Z" transform="translate(-11.35 -11.5)"/><path class="cls-1" d="M559.56,155.74q4.08,0,4.08,2.8v6h-1.83v-5.75c0-1.19-.86-1.78-2.6-1.78H553v7.53h-1.83v-8.76Z" transform="translate(-11.35 -11.5)"/><path class="cls-1" d="M570.11,152.89v2.85h2.83v1.09h-2.83v7.67h-1.83v-7.67h-2.46v-1.09h2.46v-2.85Z" transform="translate(-11.35 -11.5)"/><path class="cls-1" d="M577.08,152.13v2h-1.83v-2Zm0,3.69v8.68h-1.83v-8.68Z" transform="translate(-11.35 -11.5)"/><path class="cls-1" d="M582,152.13V164.5h-1.83V152.13Z" transform="translate(-11.35 -11.5)"/><path class="cls-1" d="M262.35,41.18a14.84,14.84,0,1,1,14.84-14.84A14.86,14.86,0,0,1,262.35,41.18Zm0-28.92a14.08,14.08,0,1,0,14.08,14.08A14.09,14.09,0,0,0,262.35,12.26Z" transform="translate(-11.35 -11.5)"/><rect class="cls-1" x="129.42" y="42.8" width="120.91" height="0.76" transform="translate(-15.83 43.63) rotate(-16.33)"/><rect class="cls-1" x="294.14" y="19.28" width="0.76" height="51.47" transform="translate(38.5 203.53) rotate(-43.48)"/><path class="cls-1" d="M336.69,83.73a3.08,3.08,0,1,0,3.07,3.08A3.08,3.08,0,0,0,336.69,83.73Zm-17.43,0a3.08,3.08,0,1,0,3.07,3.08A3.08,3.08,0,0,0,319.26,83.73ZM328,77.58a4.55,4.55,0,1,0,4.55,4.55A4.55,4.55,0,0,0,328,77.58Zm13.63,27.26h-5.37V95a8.12,8.12,0,0,0-.94-3.73,5,5,0,0,1,1.39-.22A4.92,4.92,0,0,1,341.6,96ZM319.71,95v9.82h-5.37V96a4.93,4.93,0,0,1,4.92-4.92,4.8,4.8,0,0,1,1.38.22A8.11,8.11,0,0,0,319.71,95Zm1.12,12.66H335.1V95a7.14,7.14,0,0,0-14.27,0Z" transform="translate(-11.35 -11.5)"/><path class="cls-1" d="M265.76,18.46H259a1.61,1.61,0,0,0-1.63,1.6V31.62A1.62,1.62,0,0,0,259,33.23h6.81a1.62,1.62,0,0,0,1.62-1.61V20.06A1.61,1.61,0,0,0,265.76,18.46Zm-3.41,13.32a.9.9,0,1,1,.91-.9A.9.9,0,0,1,262.35,31.78ZM266,29.1h-7.25V19.92H266Z" transform="translate(-11.35 -11.5)"/><path class="cls-1" d="M124.81,100.89a6,6,0,0,0-3.69,1.27l-10.58-6.35a5.36,5.36,0,0,0,.09-1,5.55,5.55,0,0,0-.09-1l10.58-6.34a6,6,0,0,0,3.69,1.26,6.08,6.08,0,1,0-6.08-6.08,6.64,6.64,0,0,0,.09,1L108.25,90a6,6,0,0,0-3.7-1.26,6.08,6.08,0,0,0,0,12.15,6,6,0,0,0,3.7-1.26L118.82,106a6.39,6.39,0,0,0-.09,1,6.08,6.08,0,1,0,6.08-6.08Z" transform="translate(-11.35 -11.5)"/></svg>