<svg id="Layer_1" data-name="Layer 1" xmlns="http://www.w3.org/2000/svg" viewBox="0 0 37.07 19.08"><title>logo-icon</title><path d="M1.68,18.59c.51,0,.76.18.76.52v.22a.32.32,0,0,1-.09.24.5.5,0,0,1-.28.15c.27.07.4.2.4.42v.25c0,.32-.25.49-.77.49H0V18.59ZM.36,20.65H1.64q.48,0,.48-.3v-.24c0-.19-.17-.28-.51-.28H.54v-.21H1.61c.32,0,.49-.09.49-.27v-.2c0-.21-.16-.32-.48-.32H.36Z" transform="translate(0 -1.8)" style="fill:#012326"/><path d="M4.42,19.25c.51,0,.77.17.77.52v.59c0,.35-.26.52-.77.52H3.55c-.43,0-.65-.14-.65-.43v-.13c0-.24.21-.36.62-.36H4.65v.18h-1c-.25,0-.38.07-.38.22v.07c0,.17.13.25.38.25h.75q.48,0,.48-.33v-.56c0-.21-.15-.32-.46-.32H3v-.22Z" transform="translate(0 -1.8)" style="fill:#012326"/><path d="M7.31,19.25c.52,0,.77.17.77.52v1.11H7.74V19.81c0-.22-.17-.34-.49-.34H6.08v1.41H5.74V19.25Z" transform="translate(0 -1.8)" style="fill:#012326"/><path d="M10.48,19.25v.22h-1c-.32,0-.49.12-.49.34v.51c0,.22.17.33.49.33h1v.23H9.39c-.51,0-.77-.17-.77-.52v-.59c0-.35.26-.52.77-.52Z" transform="translate(0 -1.8)" style="fill:#012326"/><path d="M12.57,19.25c.51,0,.76.17.76.52v.59c0,.35-.25.52-.76.52h-.84c-.51,0-.76-.17-.76-.52v-.59c0-.35.25-.52.76-.52Zm-1.26,1.07c0,.22.16.33.49.33h.7c.33,0,.49-.11.49-.33v-.51c0-.22-.16-.34-.49-.34h-.7c-.33,0-.49.12-.49.34Z" transform="translate(0 -1.8)" style="fill:#012326"/><path d="M17.14,18.59v.24H15.36v.78h1.75v.22H15.36v.82h1.79v.23H15V18.59Z" transform="translate(0 -1.8)" style="fill:#012326"/><path d="M19.6,19.25v.19H18.21c-.21,0-.31.07-.31.2v.13c0,.11.09.17.29.17h1c.35,0,.53.12.53.34v.24c0,.24-.19.36-.58.36H17.59v-.2H19c.23,0,.34-.06.34-.19V20.3c0-.12-.1-.17-.29-.17h-1c-.36,0-.54-.12-.54-.34v-.18q0-.36.57-.36Z" transform="translate(0 -1.8)" style="fill:#012326"/><path d="M20.83,18.71v.54h.54v.2h-.54v1.43h-.34V19.45H20v-.2h.46v-.54Z" transform="translate(0 -1.8)" style="fill:#012326"/><path d="M22.12,19.25v1.07c0,.22.16.33.49.33h.67c.32,0,.49-.11.49-.33V19.25h.34v1.11c0,.35-.26.52-.77.52h-.79c-.51,0-.77-.17-.77-.52V19.25Z" transform="translate(0 -1.8)" style="fill:#012326"/><path d="M27,18.57v1.79c0,.35-.26.52-.77.52h-.81c-.51,0-.76-.17-.76-.52v-.59c0-.35.25-.52.76-.52h1.05v.22h-1c-.33,0-.49.12-.49.34v.51c0,.22.16.33.49.33h.68q.48,0,.48-.33V18.57Z" transform="translate(0 -1.8)" style="fill:#012326"/><path d="M27.91,18.57v.37h-.35v-.37Zm0,.69v1.62h-.35V19.26Z" transform="translate(0 -1.8)" style="fill:#012326"/><path d="M30,19.25c.51,0,.77.17.77.52v.59c0,.35-.26.52-.77.52h-.87c-.43,0-.65-.14-.65-.43v-.13c0-.24.21-.36.62-.36h1.13v.18h-1c-.25,0-.38.07-.38.22v.07c0,.17.13.25.39.25h.74q.48,0,.48-.33v-.56c0-.21-.15-.32-.46-.32h-1.4v-.22Z" transform="translate(0 -1.8)" style="fill:#012326"/><path d="M32.86,19.25c.51,0,.76.17.76.52v1.11h-.34V19.81c0-.22-.16-.34-.49-.34H31.62v1.41h-.34V19.25Z" transform="translate(0 -1.8)" style="fill:#012326"/><path d="M34.83,18.71v.54h.54v.2h-.54v1.43h-.34V19.45H34v-.2h.46v-.54Z" transform="translate(0 -1.8)" style="fill:#012326"/><path d="M36.14,18.57v.37H35.8v-.37Zm0,.69v1.62H35.8V19.26Z" transform="translate(0 -1.8)" style="fill:#012326"/><path d="M37.07,18.57v2.31h-.34V18.57Z" transform="translate(0 -1.8)" style="fill:#012326"/><polygon points="18.53 10.87 13.66 15.71 23.4 15.71 18.53 10.87" style="fill:#30b9d1"/><path d="M.11,1.82H12.76q3.42,0,3.42,3.36c0,1.93-.6,3.1-1.75,3.51v.06q2.16.33,2.16,3.63T12.76,15.8H.11Zm4,10.62h7.5c.67,0,1-.43,1-1.28s-.34-1.15-1-1.15H4Zm0-5.08h7.41q.75,0,.75-1.08c0-.73-.25-1.1-.75-1.1H4.06Z" transform="translate(0 -1.8)" style="fill:#012326"/><path d="M24.38,10.43V11a1.39,1.39,0,0,0,1.28,1.37H37L33.08,16,24.7,16a4.83,4.83,0,0,1-3.24-1.08A3.82,3.82,0,0,1,20.35,12V5.76a3.84,3.84,0,0,1,1.13-2.9,4.6,4.6,0,0,1,3.2-1.06H37V5.35H25.65a1.19,1.19,0,0,0-.93.41,1.73,1.73,0,0,0-.34,1v.64H35.25v3Z" transform="translate(0 -1.8)" style="fill:#012326"/><rect x="0.11" y="15.34" width="13.27" height="0.37" style="fill:#012326"/><rect x="23.69" y="15.34" width="13.27" height="0.37" style="fill:#012326"/><polygon points="36.96 11.49 34.19 14.06 36.96 14.06 36.96 11.49" style="fill:#30b9d1"/></svg>