<svg id="Layer_1" data-name="Layer 1" xmlns="http://www.w3.org/2000/svg" viewBox="0 0 76.48 18.73"><defs><style>.cls-1{fill:#30b9d1;}.cls-2{fill:#006974;}</style></defs><title>logo-text</title><path class="cls-1" d="M6.2,2h3.87c2.13,0,3,.91,3,1.9a1.68,1.68,0,0,1-1.23,1.62,1.92,1.92,0,0,1,1.51,1.74c0,1.32-1.27,2.22-3.16,2.22h-4ZM9.84,5c1.08,0,1.52-.38,1.52-1s-.54-.94-1.42-.94h-2V5ZM7.9,8.35h2c1.11,0,1.7-.39,1.7-1.16S11,6.08,9.78,6.08H7.9Z" transform="translate(-6.2 -1.97)"/><path class="cls-1" d="M16.35,7.76l-.72,1.69H14.11l2.83-6.64h1.93l2.95,6.64H20.2l-.76-1.69Zm2.75-1c-.65-1.53-1.05-2.43-1.24-3h0c-.2.63-.64,1.7-1.16,3Z" transform="translate(-6.2 -1.97)"/><path class="cls-1" d="M23,9.45V2.81h1.94C26,4.32,28.09,7.22,28.5,7.94h0A28.75,28.75,0,0,1,28.43,5V2.81h1.41V9.45H28c-1-1.35-3.25-4.6-3.69-5.36h0c.06.64.07,1.93.07,3.12V9.45Z" transform="translate(-6.2 -1.97)"/><path class="cls-1" d="M38.67,7.46c-.34,1.2-1.46,2.08-3.44,2.08-2.56,0-3.79-1.5-3.79-3.38s1.26-3.45,3.85-3.45c2.1,0,3.16,1,3.37,2.1H37.13A1.75,1.75,0,0,0,35.24,3.7,2.14,2.14,0,0,0,33,6.11a2.17,2.17,0,0,0,2.25,2.44,1.78,1.78,0,0,0,1.83-1.09Z" transform="translate(-6.2 -1.97)"/><path class="cls-1" d="M47.62,6.1c0,1.84-1.33,3.45-4,3.45S39.78,8,39.78,6.13s1.45-3.42,4-3.42C46.13,2.71,47.62,4.09,47.62,6.1Zm-6.24,0a2.22,2.22,0,0,0,2.33,2.42A2.16,2.16,0,0,0,46,6.12a2.17,2.17,0,0,0-2.34-2.38A2.13,2.13,0,0,0,41.38,6.1Z" transform="translate(-6.2 -1.97)"/><path class="cls-2" d="M12.36,17.3H7.89v2.16h4.93l-.21,1.16H6.2V13.14h6.37V14.3H7.89v1.84h4.47Z" transform="translate(-6.2 -1.97)"/><path class="cls-2" d="M15.2,18.7c.2.72.82,1.05,1.85,1.05s1.5-.36,1.5-.9-.4-.86-1.88-1.15c-2.13-.4-2.73-1-2.73-1.93,0-1.1,1-1.89,2.92-1.89,2.1,0,2.95.93,3.06,1.87H18.37c-.11-.47-.45-.93-1.55-.93-.82,0-1.3.29-1.3.81s.39.73,1.75,1c2.37.46,2.86,1.18,2.86,2.09,0,1.16-1.08,2-3.19,2s-3.11-.86-3.29-2Z" transform="translate(-6.2 -1.97)"/><path class="cls-2" d="M23.24,15H20.69V14h6.63v1H24.78v5.61H23.24Z" transform="translate(-6.2 -1.97)"/><path class="cls-2" d="M30.12,14v4A1.63,1.63,0,0,0,32,19.72c1.09,0,1.81-.45,1.81-1.77V14h1.54v3.91c0,2.24-1.58,2.83-3.37,2.83s-3.36-.63-3.36-2.79V14Z" transform="translate(-6.2 -1.97)"/><path class="cls-2" d="M37.28,14h3.14c2.36,0,3.92,1.28,3.92,3.25s-1.51,3.4-4,3.4H37.28Zm1.54,5.63h1.46a2.21,2.21,0,0,0,2.47-2.37A2.18,2.18,0,0,0,40.29,15H38.82Z" transform="translate(-6.2 -1.97)"/><path class="cls-2" d="M47.49,14v6.65H46V14Z" transform="translate(-6.2 -1.97)"/><path class="cls-2" d="M50.92,18.93l-.72,1.69H48.68L51.51,14h1.92l3,6.65H54.77L54,18.93Zm2.74-1c-.65-1.52-1-2.42-1.23-3h0c-.2.62-.64,1.69-1.16,3Z" transform="translate(-6.2 -1.97)"/><path class="cls-2" d="M57.52,20.62V14h1.94c1.08,1.52,3.2,4.42,3.61,5.14h0A28.75,28.75,0,0,1,63,16.16V14h1.41v6.65H62.58c-.95-1.35-3.25-4.6-3.69-5.36h0c.06.64.07,1.92.07,3.12v2.24Z" transform="translate(-6.2 -1.97)"/><path class="cls-2" d="M68.19,15H65.64V14h6.63v1H69.73v5.61H68.19Z" transform="translate(-6.2 -1.97)"/><path class="cls-2" d="M74.94,14v6.65H73.4V14Z" transform="translate(-6.2 -1.97)"/><path class="cls-2" d="M77,14h1.54v5.61h4.16l-.19,1H77Z" transform="translate(-6.2 -1.97)"/></svg>