<svg id="Layer_1" data-name="Layer 1" xmlns="http://www.w3.org/2000/svg" viewBox="0 0 494.38 256"><defs><style>.cls-1{fill:#012326;}.cls-2{fill:#30b9d1;}</style></defs><title>LOGO-COMPLETO</title><path class="cls-1" d="M25.19,228.34q10.22,0,10.22,7v2.86a4.77,4.77,0,0,1-1.22,3.32,7.57,7.57,0,0,1-3.73,2q5.32,1.26,5.32,5.55v3.31q0,6.64-10.28,6.64H2.81V228.34ZM7.57,255.85H24.69q6.33,0,6.33-4v-3.23q0-3.78-6.77-3.78H10.08V242H24.25q6.53,0,6.52-3.52v-2.69q0-4.33-6.33-4.33H7.57Z" transform="translate(-2.81 -3)"/><path class="cls-1" d="M61.74,237.08q10.21,0,10.22,7V252q0,7-10.22,7H50.2q-8.72,0-8.71-5.8v-1.72q0-4.87,8.27-4.87H64.87v2.48H51c-3.39,0-5.08,1-5.08,2.9v1q0,3.36,5.14,3.36H61q6.39,0,6.39-4.45v-7.51q0-4.33-6.21-4.33H42.49v-3Z" transform="translate(-2.81 -3)"/><path class="cls-1" d="M100.36,237.08q10.22,0,10.22,7V259H106V244.59c0-3-2.18-4.45-6.52-4.45H83.93V259H79.35V237.08Z" transform="translate(-2.81 -3)"/><path class="cls-1" d="M142.61,237.08v3.06H128.88c-4.35,0-6.52,1.49-6.52,4.45v6.89q0,4.5,6.52,4.5h13.73v3H128q-10.22,0-10.22-7v-7.9q0-7,10.22-7Z" transform="translate(-2.81 -3)"/><path class="cls-1" d="M170.38,237.08q10.22,0,10.22,7V252q0,7-10.22,7H159.29q-10.23,0-10.22-7v-7.9q0-7,10.22-7Zm-16.74,14.4c0,3,2.18,4.5,6.52,4.5h9.35c4.34,0,6.52-1.5,6.52-4.5v-6.89c0-3-2.18-4.45-6.52-4.45h-9.35c-4.34,0-6.52,1.49-6.52,4.45Z" transform="translate(-2.81 -3)"/><path class="cls-1" d="M231.32,228.34v3.15h-23.7v10.42h23.32v3H207.62v10.92h23.95V259H202.86V228.34Z" transform="translate(-2.81 -3)"/><path class="cls-1" d="M264.23,237.08v2.64H245.67q-4.2,0-4.2,2.61v1.72q0,2.38,3.89,2.39h13.17q7.14,0,7.14,4.5v3.19q0,4.88-7.71,4.87H237.34v-2.65h19.43c3,0,4.45-.86,4.45-2.6v-2.48q0-2.39-3.82-2.39H244.23c-4.8,0-7.21-1.5-7.21-4.49v-2.48q0-4.83,7.53-4.83Z" transform="translate(-2.81 -3)"/><path class="cls-1" d="M280.66,229.94v7.14h7.08v2.73h-7.08V259h-4.58V239.81h-6.14v-2.73h6.14v-7.14Z" transform="translate(-2.81 -3)"/><path class="cls-1" d="M297.83,237.12v14.36c0,3,2.16,4.5,6.46,4.5h9q6.51,0,6.51-4.5V237.12h4.52V252q0,7-10.22,7H303.48q-10.23,0-10.22-7V237.12Z" transform="translate(-2.81 -3)"/><path class="cls-1" d="M362.72,228.05V252q0,7-10.22,7H341.72q-10.23,0-10.22-7v-7.9q0-7,10.22-7h13.91v3.06h-13c-4.35,0-6.52,1.49-6.52,4.45v6.89q0,4.5,6.52,4.5h9q6.53,0,6.52-4.5V228.05Z" transform="translate(-2.81 -3)"/><path class="cls-1" d="M374.94,228.05v4.87h-4.57v-4.87Zm0,9.24V259h-4.57V237.29Z" transform="translate(-2.81 -3)"/><path class="cls-1" d="M402.34,237.08q10.21,0,10.22,7V252q0,7-10.22,7H390.81q-8.71,0-8.72-5.8v-1.72q0-4.87,8.28-4.87h15.11v2.48H391.56c-3.39,0-5.08,1-5.08,2.9v1q0,3.36,5.14,3.36h10q6.39,0,6.39-4.45v-7.51q0-4.33-6.2-4.33H383.09v-3Z" transform="translate(-2.81 -3)"/><path class="cls-1" d="M441,237.08q10.21,0,10.22,7V259H446.6V244.59c0-3-2.17-4.45-6.52-4.45H424.53V259H420V237.08Z" transform="translate(-2.81 -3)"/><path class="cls-1" d="M467.35,229.94v7.14h7.09v2.73h-7.09V259h-4.58V239.81h-6.14v-2.73h6.14v-7.14Z" transform="translate(-2.81 -3)"/><path class="cls-1" d="M484.78,228.05v4.87H480.2v-4.87Zm0,9.24V259H480.2V237.29Z" transform="translate(-2.81 -3)"/><path class="cls-1" d="M497.19,228.05V259h-4.58V228.05Z" transform="translate(-2.81 -3)"/><polygon class="cls-2" points="247.13 145.83 182.14 210.82 312.12 210.82 247.13 145.83"/><path class="cls-1" d="M4.22,3.26h168.7q45.63,0,45.62,45.07-.24,38.85-23.28,47.14v.78Q224,100.66,224,145q0,45.84-51.09,45.85H4.22ZM57,145.72H157q13.29,0,13.3-17.09,0-15.54-13.54-15.54h-100ZM57,77.6h98.85q10,0,10-14.51,0-14.76-10-14.76H57Z" transform="translate(-2.81 -3)"/><path class="cls-1" d="M328,118.79v8q.94,8.81,4.75,12.43a19.45,19.45,0,0,0,12.36,6H495.71l-51.8,47.92-111.67-.26q-29-1.05-43.25-14.51-14.73-14.24-14.73-38.85V56.1q0-24.35,15-38.85Q304.2,3.25,332,3H495.71V50.66H344.83a15.6,15.6,0,0,0-12.35,5.44q-4.29,5.44-4.52,14v8.55H472.9v40.15Z" transform="translate(-2.81 -3)"/><rect class="cls-1" x="1.42" y="205.85" width="176.93" height="4.93"/><rect class="cls-1" x="315.97" y="205.85" width="176.93" height="4.93"/><polygon class="cls-2" points="492.9 154.24 455.99 188.62 492.9 188.62 492.9 154.24"/></svg>